<svg width="60" height="60" viewBox="0 0 60 60" fill="none" xmlns="http://www.w3.org/2000/svg">
<g clip-path="url(#clip0)">
<path d="M22.55 52.5H6.25C2.805 52.5 0 49.6975 0 46.25V6.25C0 2.8025 2.805 0 6.25 0H36.25C39.695 0 42.5 2.8025 42.5 6.25V21.4C42.5 22.09 41.94 22.65 41.25 22.65C40.56 22.65 40 22.09 40 21.4V6.25C40 4.1825 38.3175 2.5 36.25 2.5H6.25C4.1825 2.5 2.5 4.1825 2.5 6.25V46.25C2.5 48.3175 4.1825 50 6.25 50H22.55C23.24 50 23.8 50.56 23.8 51.25C23.8 51.94 23.24 52.5 22.55 52.5Z" fill="#FCA311"/>
<path d="M33.75 22.5H8.75C8.06 22.5 7.5 21.94 7.5 21.25C7.5 20.56 8.06 20 8.75 20H33.75C34.44 20 35 20.56 35 21.25C35 21.94 34.44 22.5 33.75 22.5Z" fill="#FCA311"/>
<path d="M23.75 32.5H8.75C8.06 32.5 7.5 31.94 7.5 31.25C7.5 30.56 8.06 30 8.75 30H23.75C24.44 30 25 30.56 25 31.25C25 31.94 24.44 32.5 23.75 32.5Z" fill="#FCA311"/>
<path d="M21.25 12.4999H8.75C8.06 12.4999 7.5 11.9399 7.5 11.2499C7.5 10.5599 8.06 9.99994 8.75 9.99994H21.25C21.94 9.99994 22.5 10.5599 22.5 11.2499C22.5 11.9399 21.94 12.4999 21.25 12.4999Z" fill="#FCA311"/>
<path d="M43.7499 60.0001C34.7899 60.0001 27.4999 52.7101 27.4999 43.7501C27.4999 34.7901 34.7899 27.5001 43.7499 27.5001C52.71 27.5001 60 34.7901 60 43.7501C60 52.7101 52.71 60.0001 43.7499 60.0001ZM43.7499 30.0001C36.1674 30.0001 29.9999 36.1701 29.9999 43.7501C29.9999 51.3301 36.1674 57.5001 43.7499 57.5001C51.3325 57.5001 57.5 51.3301 57.5 43.7501C57.5 36.1701 51.3325 30.0001 43.7499 30.0001Z" fill="#FCA311"/>
<path d="M43.75 52.5C43.06 52.5 42.5 51.94 42.5 51.25V36.25C42.5 35.56 43.06 35 43.75 35C44.44 35 45 35.56 45 36.25V51.25C45 51.94 44.44 52.5 43.75 52.5Z" fill="#FCA311"/>
<path d="M51.25 45H36.25C35.56 45 35 44.44 35 43.75C35 43.06 35.56 42.5 36.25 42.5H51.25C51.94 42.5 52.5 43.06 52.5 43.75C52.5 44.44 51.94 45 51.25 45Z" fill="#FCA311"/>
</g>
<defs>
<clipPath id="clip0">
<rect width="60" height="60" fill="white"/>
</clipPath>
</defs>
</svg>
