<svg width="80" height="80" viewBox="0 0 80 80" fill="none" xmlns="http://www.w3.org/2000/svg">
<path d="M73.8162 79.9999H6.18382C5.09021 80.0069 4.01514 79.6704 3.07135 79.0258C2.12756 78.3811 1.34984 77.452 0.819761 76.3359C0.268257 75.2155 -0.014693 73.9426 0.000587715 72.6507C0.0158684 71.3587 0.328817 70.0954 0.90661 68.9932L34.7216 3.49031C35.268 2.42594 36.0414 1.54494 36.9665 0.933238C37.8915 0.321532 38.9367 0 40 0C41.0633 0 42.1085 0.321532 43.0335 0.933238C43.9586 1.54494 44.732 2.42594 45.2784 3.49031L79.0934 68.9932C79.6712 70.0954 79.9841 71.3587 79.9994 72.6507C80.0147 73.9426 79.7317 75.2155 79.1802 76.3359C78.6502 77.452 77.8724 78.3811 76.9286 79.0258C75.9849 79.6704 74.9098 80.0069 73.8162 79.9999ZM40 2.6663C39.3303 2.66432 38.6717 2.86621 38.0893 3.25204C37.5069 3.63786 37.0209 4.19427 36.6792 4.86631L2.86071 70.3692C2.49444 71.0679 2.29608 71.8688 2.28643 72.6878C2.27678 73.5067 2.4562 74.3137 2.80586 75.0239C3.13932 75.7272 3.62895 76.3128 4.22334 76.7192C4.81773 77.1255 5.49493 77.3376 6.18382 77.3332H73.8162C74.5045 77.3369 75.181 77.1245 75.7747 76.7182C76.3684 76.3119 76.8575 75.7266 77.1907 75.0239C77.5404 74.3137 77.7198 73.5067 77.7101 72.6878C77.7005 71.8688 77.5021 71.0679 77.1359 70.3692L43.3208 4.86631C42.9791 4.19427 42.4931 3.63786 41.9107 3.25204C41.3283 2.86621 40.6697 2.66432 40 2.6663Z" fill="black"/>
<path d="M40.0001 57.3331C39.0909 57.3331 38.2189 56.9117 37.576 56.1616C36.9331 55.4114 36.5719 54.394 36.5719 53.3331V26.6664C36.5719 25.6055 36.9331 24.5881 37.576 23.838C38.2189 23.0878 39.0909 22.6664 40.0001 22.6664C40.9094 22.6664 41.7813 23.0878 42.4243 23.838C43.0672 24.5881 43.4284 25.6055 43.4284 26.6664V53.3331C43.4284 54.394 43.0672 55.4114 42.4243 56.1616C41.7813 56.9117 40.9094 57.3331 40.0001 57.3331ZM40.0001 25.3331C39.6971 25.3331 39.4064 25.4735 39.1921 25.7236C38.9778 25.9736 38.8574 26.3128 38.8574 26.6664V53.3331C38.8574 53.6868 38.9778 54.0259 39.1921 54.2759C39.4064 54.526 39.6971 54.6665 40.0001 54.6665C40.3032 54.6665 40.5939 54.526 40.8082 54.2759C41.0225 54.0259 41.1429 53.6868 41.1429 53.3331V26.6664C41.1429 26.3128 41.0225 25.9736 40.8082 25.7236C40.5939 25.4735 40.3032 25.3331 40.0001 25.3331Z" fill="black"/>
<path d="M40.0001 70.6666C39.0909 70.6666 38.2189 70.2451 37.576 69.495C36.9331 68.7448 36.5719 67.7274 36.5719 66.6665V65.3332C36.5719 64.2723 36.9331 63.2549 37.576 62.5048C38.2189 61.7546 39.0909 61.3332 40.0001 61.3332C40.9094 61.3332 41.7813 61.7546 42.4243 62.5048C43.0672 63.2549 43.4284 64.2723 43.4284 65.3332V66.6665C43.4284 67.7274 43.0672 68.7448 42.4243 69.495C41.7813 70.2451 40.9094 70.6666 40.0001 70.6666ZM40.0001 63.9999C39.6971 63.9999 39.4064 64.1403 39.1921 64.3904C38.9778 64.6404 38.8574 64.9796 38.8574 65.3332V66.6665C38.8574 67.0202 38.9778 67.3593 39.1921 67.6094C39.4064 67.8594 39.6971 67.9999 40.0001 67.9999C40.3032 67.9999 40.5939 67.8594 40.8082 67.6094C41.0225 67.3593 41.1429 67.0202 41.1429 66.6665V65.3332C41.1429 64.9796 41.0225 64.6404 40.8082 64.3904C40.5939 64.1403 40.3032 63.9999 40.0001 63.9999Z" fill="black"/>
</svg>
