<svg width="38" height="48" viewBox="0 0 38 48" fill="none" xmlns="http://www.w3.org/2000/svg">
<g filter="url(#filter0_d)">
<path d="M28.7989 10.1739H26.2554V8.27012C27.0261 7.68766 27.5272 6.75929 27.5272 5.72283C27.5272 4.2457 26.513 2.97587 25.0899 2.63632C24.7045 2.31965 24.2524 2.10091 23.7616 1.99409C22.9623 0.854609 21.4406 0.337647 20.111 0.825359C19.2056 0.0012718 17.855 -0.236543 16.7174 0.274696C15.789 -0.141799 14.7182 -0.0737609 13.856 0.436207C13.3708 0.149429 12.8297 0 12.2663 0C11.2693 0 10.3333 0.478174 9.73618 1.27174C8.6978 1.25457 7.72492 1.78171 7.12975 2.63059C5.68823 2.94726 4.63587 4.22599 4.63587 5.72283C4.63587 6.76057 5.1363 7.69339 5.90761 8.27711V34.4272C4.81391 34.7115 4 35.6984 4 36.8804C4 38.2832 5.14075 39.4239 6.54348 39.4239H25.6196C27.0223 39.4239 28.163 38.2832 28.163 36.8804C28.163 35.6984 27.3491 34.7115 26.2554 34.4272V29.8859H28.7989C31.2534 29.8859 33.25 27.8886 33.25 25.4348V14.625C33.25 12.1705 31.2534 10.1739 28.7989 10.1739ZM26.2554 13.9891H28.7989C29.1493 13.9891 29.4348 14.2746 29.4348 14.625V25.4348C29.4348 25.7858 29.1493 26.0707 28.7989 26.0707H26.2554V13.9891ZM7.59076 3.84129C7.79169 3.81712 7.96973 3.69885 8.06956 3.52272C8.44155 2.86332 9.19251 2.46463 9.90723 2.56319C9.90914 2.56319 9.97272 2.57209 9.97399 2.57209C10.2322 2.60579 10.484 2.47989 10.6111 2.25352C10.952 1.64754 11.5859 1.27174 12.2663 1.27174C12.6955 1.27174 13.1069 1.42053 13.4567 1.70286C13.6894 1.89108 14.0232 1.89108 14.2559 1.70286C14.8727 1.20497 15.6975 1.12994 16.3975 1.53817C16.5959 1.65326 16.8395 1.65326 17.0379 1.53817C17.8683 1.05427 18.8851 1.2711 19.4663 1.98964C19.6589 2.22809 19.9947 2.29613 20.2649 2.1486C21.2085 1.63546 22.3283 2.01062 22.8217 2.88621C22.9216 3.06298 23.0996 3.18126 23.3005 3.20542C23.705 3.25374 24.0731 3.42161 24.3656 3.69186C24.4547 3.77389 24.5653 3.82921 24.6848 3.85083C25.5948 4.01361 26.2554 4.80082 26.2554 5.72283C26.2554 6.77455 25.3996 7.63043 24.3478 7.63043C24.1933 7.63043 24.0286 7.60373 23.8296 7.54714C23.6605 7.49945 23.4786 7.52361 23.3273 7.6139C23.1759 7.70483 23.0697 7.85426 23.0335 8.02658C22.9139 8.59251 22.5248 9.0834 21.9926 9.34029C21.6963 9.48399 21.5583 9.82991 21.6746 10.1377C21.7611 10.3659 21.8043 10.5917 21.8043 10.8098C21.8043 11.239 21.6556 11.6504 21.3732 12.0001C21.185 12.2335 21.185 12.5661 21.3732 12.7994C21.6556 13.1485 21.8043 13.5599 21.8043 13.9891C21.8043 15.0409 20.9485 15.8967 19.8967 15.8967C18.845 15.8967 17.9891 15.0409 17.9891 13.9891C17.9891 13.5599 18.1386 13.1485 18.4209 12.7988C18.6091 12.5661 18.6085 12.2329 18.4209 12.0001C18.2467 11.7839 18.1239 11.5417 18.0572 11.2797C17.9853 10.9974 17.731 10.8015 17.4416 10.8015C17.4347 10.8015 17.4283 10.8015 17.4213 10.8015C17.3825 10.8028 17.3463 10.8066 17.3533 10.8098C16.8039 10.8098 16.2964 10.5751 15.9238 10.1497C15.6828 9.87315 15.2078 9.87315 14.9668 10.1497C14.5949 10.5751 14.0874 10.8098 13.538 10.8098C12.8577 10.8098 12.2237 10.434 11.8829 9.82864C11.7544 9.59972 11.4403 9.48336 11.1809 9.51833C11.1198 9.52723 11.0588 9.53804 10.9946 9.53804C10.0993 9.53804 9.3146 8.90281 9.12956 8.02722C9.09268 7.8549 8.98649 7.70547 8.83579 7.61454C8.68509 7.52361 8.50259 7.50008 8.33345 7.54777C8.13442 7.60373 7.96973 7.63043 7.81522 7.63043C6.76349 7.63043 5.90761 6.77455 5.90761 5.72283C5.90761 4.76393 6.63123 3.95511 7.59076 3.84129ZM8.07656 8.88946C8.57127 10.0315 9.7152 10.8098 10.9946 10.8098H11.0086C11.605 11.6033 12.541 12.0815 13.538 12.0815C14.2286 12.0815 14.8975 11.8507 15.4457 11.4342C15.8952 11.7757 16.4255 11.9925 16.9825 12.0593C17.0328 12.1756 17.0894 12.2882 17.1542 12.3982C16.8675 12.884 16.7174 13.4257 16.7174 13.9891C16.7174 15.7422 18.1436 17.1685 19.8967 17.1685C21.6498 17.1685 23.0761 15.7422 23.0761 13.9891C23.0761 13.4257 22.9267 12.8846 22.6399 12.3995C22.9267 11.9143 23.0761 11.3732 23.0761 10.8098C23.0761 10.6101 23.0557 10.4085 23.015 10.2076C23.4843 9.87124 23.8557 9.41278 24.0852 8.88946C24.3949 8.91807 24.6956 8.89709 24.9843 8.83922V34.337H7.17935V8.84431C7.46676 8.90027 7.76689 8.91998 8.07656 8.88946ZM26.8913 36.8804C26.8913 37.5818 26.3209 38.1522 25.6196 38.1522H6.54348C5.84211 38.1522 5.27174 37.5818 5.27174 36.8804C5.27174 36.1791 5.84211 35.6087 6.54348 35.6087H25.6196C26.3209 35.6087 26.8913 36.1791 26.8913 36.8804ZM31.9783 25.4348C31.9783 27.1879 30.552 28.6141 28.7989 28.6141H26.2554V27.3424H28.7989C29.8506 27.3424 30.7065 26.4865 30.7065 25.4348V14.625C30.7065 13.5733 29.8506 12.7174 28.7989 12.7174H26.2554V11.4457H28.7989C30.552 11.4457 31.9783 12.8719 31.9783 14.625V25.4348Z" fill="white"/>
<path d="M10.3587 33.0652C11.4104 33.0652 12.2663 32.2093 12.2663 31.1576V19.7119C12.2663 18.6602 11.4104 17.8043 10.3587 17.8043C9.30693 17.8043 8.45105 18.6602 8.45105 19.7119V31.1576C8.45105 32.2093 9.30693 33.0652 10.3587 33.0652ZM9.72279 19.7119C9.72279 19.3616 10.0083 19.0761 10.3587 19.0761C10.709 19.0761 10.9945 19.3616 10.9945 19.7119V31.1576C10.9945 31.5086 10.709 31.7935 10.3587 31.7935C10.0083 31.7935 9.72279 31.5086 9.72279 31.1576V19.7119Z" fill="white"/>
<path d="M16.0816 33.0652C17.1333 33.0652 17.9892 32.2093 17.9892 31.1576V19.7119C17.9892 18.6602 17.1333 17.8043 16.0816 17.8043C15.0298 17.8043 14.174 18.6602 14.174 19.7119V31.1576C14.174 32.2093 15.0298 33.0652 16.0816 33.0652ZM15.4457 19.7119C15.4457 19.3616 15.7312 19.0761 16.0816 19.0761C16.4319 19.0761 16.7174 19.3616 16.7174 19.7119V31.1576C16.7174 31.5086 16.4319 31.7935 16.0816 31.7935C15.7312 31.7935 15.4457 31.5086 15.4457 31.1576V19.7119Z" fill="white"/>
<path d="M21.8043 33.0652C22.8561 33.0652 23.7119 32.2093 23.7119 31.1576V19.7119C23.7119 18.6602 22.8561 17.8043 21.8043 17.8043C20.7526 17.8043 19.8967 18.6602 19.8967 19.7119V31.1576C19.8967 32.2093 20.7526 33.0652 21.8043 33.0652ZM21.1685 19.7119C21.1685 19.3616 21.454 19.0761 21.8043 19.0761C22.1547 19.0761 22.4402 19.3616 22.4402 19.7119V31.1576C22.4402 31.5086 22.1547 31.7935 21.8043 31.7935C21.454 31.7935 21.1685 31.5086 21.1685 31.1576V19.7119Z" fill="white"/>
</g>
<defs>
<filter id="filter0_d" x="0" y="0" width="37.25" height="47.4239" filterUnits="userSpaceOnUse" color-interpolation-filters="sRGB">
<feFlood flood-opacity="0" result="BackgroundImageFix"/>
<feColorMatrix in="SourceAlpha" type="matrix" values="0 0 0 0 0 0 0 0 0 0 0 0 0 0 0 0 0 0 127 0"/>
<feOffset dy="4"/>
<feGaussianBlur stdDeviation="2"/>
<feColorMatrix type="matrix" values="0 0 0 0 0 0 0 0 0 0 0 0 0 0 0 0 0 0 0.25 0"/>
<feBlend mode="normal" in2="BackgroundImageFix" result="effect1_dropShadow"/>
<feBlend mode="normal" in="SourceGraphic" in2="effect1_dropShadow" result="shape"/>
</filter>
</defs>
</svg>
