<svg width="50" height="50" viewBox="0 0 50 50" fill="none" xmlns="http://www.w3.org/2000/svg">
<path d="M29.6307 30.7046C31.5276 30.7046 33.0709 29.1602 33.0709 27.2616C33.0709 25.3647 31.5276 23.8213 29.6307 23.8213C27.7338 23.8213 26.1904 25.3647 26.1904 27.2616C26.1904 29.1601 27.7338 30.7046 29.6307 30.7046ZM29.6307 25.7745C30.4507 25.7745 31.1178 26.4416 31.1178 27.2617C31.1178 28.0832 30.4507 28.7516 29.6307 28.7516C28.8107 28.7516 28.1436 28.0832 28.1436 27.2617C28.1436 26.4416 28.8107 25.7745 29.6307 25.7745Z" fill="#14213D"/>
<path d="M39.0174 23.8214C37.1204 23.8214 35.5771 25.3647 35.5771 27.2617C35.5771 29.1601 37.1204 30.7047 39.0174 30.7047C40.9144 30.7047 42.4576 29.1602 42.4576 27.2617C42.4576 25.3646 40.9144 23.8214 39.0174 23.8214ZM39.0174 28.7514C38.1974 28.7514 37.5303 28.0831 37.5303 27.2616C37.5303 26.4416 38.1974 25.7744 39.0174 25.7744C39.8374 25.7744 40.5045 26.4415 40.5045 27.2616C40.5045 28.0831 39.8374 28.7514 39.0174 28.7514Z" fill="#14213D"/>
<path d="M39.5794 33.6455H27.167C26.6276 33.6455 26.1904 34.0828 26.1904 34.6221C26.1904 35.1613 26.6276 35.5986 27.167 35.5986H39.5794C40.1188 35.5986 40.556 35.1613 40.556 34.6221C40.556 34.0828 40.1188 33.6455 39.5794 33.6455Z" fill="#14213D"/>
<path d="M39.5794 37.6206H27.167C26.6276 37.6206 26.1904 38.0579 26.1904 38.5972C26.1904 39.1364 26.6276 39.5737 27.167 39.5737H39.5794C40.1188 39.5737 40.556 39.1364 40.556 38.5972C40.556 38.0579 40.1188 37.6206 39.5794 37.6206Z" fill="#14213D"/>
<path d="M12.4849 18.2998C12.1177 17.9812 11.5722 17.9812 11.2051 18.2998C9.66534 19.6355 8.71075 21.381 8.46593 23.2431C7.64581 22.9844 6.75675 22.8674 5.82999 22.9119C5.34425 22.9352 4.94972 23.3124 4.9045 23.7966C4.78634 25.062 4.97657 26.2901 5.44396 27.3838C5.14864 27.5302 4.93712 27.8207 4.9046 28.1669C4.71066 30.2316 5.32794 32.1676 6.64278 33.6182C7.73712 34.8256 9.21378 35.5766 10.8685 35.7876V37.3517C10.8685 37.8909 11.3057 38.3282 11.845 38.3282C12.3844 38.3282 12.8216 37.8909 12.8216 37.3517V35.7876C14.5401 35.5669 16.066 34.7682 17.1626 33.4996C18.398 32.0703 18.9753 30.1769 18.7883 28.1678C18.7561 27.8213 18.5443 27.5304 18.2488 27.3838C18.7162 26.2901 18.9065 25.0619 18.7882 23.7966C18.743 23.3124 18.3484 22.9353 17.8627 22.9119C16.9358 22.8674 16.0467 22.9845 15.2265 23.2433C14.9813 21.382 14.0258 19.6364 12.4849 18.2998ZM10.8684 33.8126C9.77706 33.6205 8.81183 33.1029 8.08985 32.3065C7.34005 31.4791 6.90782 30.4201 6.83429 29.2601C8.6714 29.4613 10.191 30.5549 10.8685 32.2115V33.8126H10.8684ZM10.8684 28.9456C9.97794 28.1765 8.88312 27.6472 7.67071 27.4117C7.17989 26.6836 6.89376 25.8169 6.83478 24.8899C8.67472 25.0931 10.193 26.1901 10.8684 27.8482V28.9456ZM11.8458 25.626C11.4274 25.064 10.9254 24.5772 10.3581 24.1769C10.3653 22.8162 10.8885 21.4939 11.845 20.4089C12.8029 21.4946 13.3271 22.8171 13.3346 24.177C12.7671 24.5772 12.2649 25.064 11.8458 25.626ZM15.6849 32.2222C14.9594 33.0616 13.9592 33.6122 12.8216 33.8127V32.2121C13.5011 30.5552 15.0215 29.4615 16.8583 29.2601C16.7876 30.3843 16.384 31.4133 15.6849 32.2222ZM16.0222 27.4116C14.8088 27.6473 13.713 28.1776 12.8216 28.9479V27.8411C13.5004 26.1862 15.0206 25.093 16.858 24.89C16.7989 25.8169 16.5129 26.6835 16.0222 27.4116Z" fill="#14213D"/>
<path d="M45.0948 18.7704V16.4894C45.0948 15.0977 43.9626 13.9654 42.5709 13.9654H40.6215V2.72051C40.6215 1.22041 39.4011 0 37.901 0L13.5605 0C12.0604 0 10.84 1.22041 10.84 2.72051V6.2256C8.23848 6.32384 5.82832 6.81232 3.97178 7.62765C0.689062 9.06935 0 11.0943 0 12.5391L0 43.5231C0 44.0624 0.437207 44.4997 0.976562 44.4997H2.56338V47.8802C2.56338 49.0491 3.51309 50 4.68037 50H7.13301C8.30039 50 9.25 49.0491 9.25 47.8802L9.25 44.4997H14.3833L14.3833 47.8802C14.3833 49.0491 15.3343 50 16.5031 50H18.9529C20.1218 50 21.0728 49.0491 21.0728 47.8802V44.4997H22.6596H24.5979V47.8802C24.5979 49.0491 25.5488 50 26.7177 50H29.1675C30.3363 50 31.2873 49.0491 31.2873 47.8802V44.4997H40.3957V47.8802C40.3957 49.0491 41.3454 50 42.5128 50H44.9653C46.1327 50 47.0824 49.0491 47.0824 47.8802V44.4997H49.0234C49.5628 44.4997 50 44.0624 50 43.5231V24.5696C50 21.6592 47.8747 19.2371 45.0948 18.7704ZM42.5709 15.9185C42.8803 15.9185 43.1417 16.1799 43.1417 16.4894V18.6879H36.1481V16.4894C36.1481 16.1745 36.4042 15.9185 36.7189 15.9185H42.5709ZM7.29687 47.8803C7.29687 47.9707 7.22178 48.047 7.13301 48.047H4.68037C4.59307 48.047 4.5165 47.969 4.5165 47.8803V44.4998H7.29687V47.8803ZM19.1196 47.8803C19.1196 47.969 19.0417 48.047 18.9529 48.047H16.5031C16.4144 48.047 16.3364 47.969 16.3364 47.8803V44.4998H19.1196V47.8803ZM21.683 13.4699H16.1986C15.6593 13.4699 15.2221 13.9073 15.2221 14.4465C15.2221 14.9858 15.6593 15.4231 16.1986 15.4231H21.683V19.6645L21.683 42.5467H1.95312L1.95312 15.4231H7.42637C7.96572 15.4231 8.40293 14.9858 8.40293 14.4465C8.40293 13.9073 7.96572 13.4699 7.42637 13.4699H1.95312V12.5391C1.95312 9.69426 7.03574 8.15929 11.8181 8.15929C16.6004 8.15929 21.683 9.69426 21.683 12.5391V13.4699ZM19.6643 7.62765C17.807 6.81203 15.3959 6.32355 12.7933 6.2255V2.72051C12.7933 2.29737 13.1375 1.95313 13.5606 1.95313L37.9011 1.95313C38.3242 1.95313 38.6685 2.29737 38.6685 2.72051V13.9653H36.7191C35.3274 13.9653 34.1952 15.0976 34.1952 16.4893V18.6878L23.6361 18.6878V12.5391C23.6361 11.0943 22.9471 9.06935 19.6643 7.62765ZM29.3342 47.8803C29.3342 47.969 29.2562 48.047 29.1675 48.047H26.7177C26.6289 48.047 26.551 47.969 26.551 47.8803V44.4998H29.3342V47.8803ZM45.1293 47.8803C45.1293 47.9707 45.0542 48.047 44.9653 48.047H42.5128C42.4239 48.047 42.3488 47.9707 42.3488 47.8803V44.4998H45.1293V47.8803ZM48.0469 42.5467H23.6361L23.6361 20.641L44.1183 20.641C46.2845 20.641 48.0469 22.4034 48.0469 24.5696V42.5467Z" fill="#14213D"/>
<path d="M11.8425 15.6625H11.8453C12.3846 15.6625 12.8205 15.2252 12.8205 14.686C12.8205 14.1467 12.3819 13.7094 11.8425 13.7094C11.3032 13.7094 10.866 14.1467 10.866 14.686C10.866 15.2252 11.3032 15.6625 11.8425 15.6625Z" fill="#14213D"/>
</svg>
