<svg width="250" height="250" viewBox="0 0 250 250" fill="none" xmlns="http://www.w3.org/2000/svg">
<path d="M248.093 232.322C224.383 214.149 226.67 190.914 229.694 171.544C235.225 169.547 239.001 164.575 238.664 158.97L238.369 153.851C237.945 146.797 231.191 141.352 223.284 141.707L210.152 142.327L209.771 135.793C209.545 131.947 207.647 128.401 204.426 125.81C201.673 123.594 198.243 122.314 194.619 122.117L188.353 15.0641C187.838 6.30918 179.461 -0.431555 169.678 0.0215707C164.952 0.244227 160.596 2.10654 157.414 5.26572C154.229 8.42783 152.612 12.4977 152.861 16.7252L155.116 55.258H140.086C140.54 49.4264 138.038 43.0924 133.018 38.547C127.761 33.7873 121.056 32.131 114.345 33.7536C109.662 27.443 101.631 23.4489 92.9737 23.4489C89.0496 23.4489 85.2745 24.2267 81.8275 25.7257C76.5518 20.484 68.9443 17.3722 60.9241 17.3722C50.7199 17.3722 41.459 22.2653 36.4994 30.0597C30.6708 31.0519 25.7243 34.4811 22.6102 39.7995C19.8035 44.5934 18.9072 50.2189 19.8646 55.2575H18.1801C8.15502 55.2575 0 62.552 0 71.5188C0 78.9367 5.58351 85.2053 13.1867 87.1516L23.3461 174.396L15.9296 181.03C13.7975 182.936 13.7975 186.029 15.929 187.935C16.9951 188.889 18.3919 189.366 19.7893 189.366C21.1861 189.366 22.583 188.89 23.6485 187.936L24.8029 186.904L30.2069 233.311C30.4967 235.799 32.8406 237.688 35.6359 237.688H143.839C147.765 240.462 152.093 242.785 156.725 244.55C167.184 248.544 178.813 250 190.214 250C214.474 250 237.697 243.404 246.378 240.629C248.211 240.044 249.556 238.63 249.909 236.918C250.262 235.206 249.57 233.455 248.093 232.322ZM223.849 151.46C223.908 151.457 223.967 151.456 224.025 151.456C225.843 151.456 227.369 152.735 227.468 154.365L227.763 159.483C227.864 161.169 226.408 162.614 224.523 162.705L224.493 162.706C224.485 162.707 224.477 162.707 224.468 162.707L134.154 166.954C133.247 166.996 132.368 166.717 131.681 166.163C130.998 165.613 130.597 164.869 130.55 164.05L130.242 158.96C130.195 158.141 130.511 157.351 131.131 156.735C131.746 156.123 132.582 155.764 133.485 155.723C133.489 155.723 133.493 155.723 133.497 155.723L223.849 151.46ZM165.523 11.8028C166.755 10.5797 168.434 9.85899 170.252 9.77354C174.024 9.59873 177.252 12.1993 177.451 15.5753L183.712 122.533L170.024 123.176L163.762 16.2125C163.667 14.5909 164.292 13.025 165.523 11.8028ZM193.341 131.86C194.732 131.791 196.074 132.224 197.126 133.071C198.177 133.916 198.796 135.065 198.869 136.304L199.25 142.841L156.946 144.836L156.565 138.299C156.492 137.053 156.973 135.85 157.917 134.912C158.864 133.973 160.155 133.42 161.553 133.354L193.341 131.86ZM32.2805 44.3307C33.5611 42.1437 35.9498 39.5353 40.0589 39.5265C42.2489 39.5221 44.2238 38.3473 45.0753 36.5426C47.7707 30.8292 53.9918 27.1378 60.923 27.1378C66.9819 27.1378 72.6566 30.0446 75.7325 34.7238C76.5332 35.942 77.8848 36.7902 79.4383 37.0495C80.9907 37.3073 82.5938 36.9523 83.8313 36.0739C86.4661 34.2033 89.6271 33.2145 92.9732 33.2145C99.0261 33.2145 104.546 36.6193 106.708 41.6862C107.275 43.0153 108.461 44.0568 109.957 44.5387C111.453 45.0212 113.11 44.8957 114.494 44.196C118.504 42.1681 122.124 42.5768 125.253 45.4103C128.172 48.0544 129.628 52.0661 129.109 55.257H31.0606C29.8995 52.0553 30.3084 47.6984 32.2805 44.3307ZM34.7434 178.012L83.7647 134.165C86.6484 135.573 89.8482 136.28 93.0507 136.28C98.0119 136.28 102.975 134.59 106.753 131.211C110.411 127.939 112.426 123.586 112.426 118.954C112.426 114.323 110.411 109.97 106.753 106.698C99.1981 99.9407 86.9044 99.9407 79.3493 106.698C75.691 109.97 73.6763 114.323 73.6763 118.954C73.6763 121.908 74.4983 124.746 76.0403 127.264L33.2876 165.504L24.2369 87.7795H65.6746C68.6894 87.7795 71.1331 85.5935 71.1331 82.8962C71.1331 80.199 68.6894 78.0129 65.6746 78.0129H18.1801C17.988 78.0129 16.9006 77.9509 16.1217 77.7434C13.1168 76.948 10.917 74.4602 10.917 71.5188C10.917 67.9377 14.1747 65.0236 18.1796 65.0236H27.7505H132.914C132.919 65.0236 132.922 65.0241 132.927 65.0241C132.931 65.0241 132.935 65.0236 132.939 65.0236H155.688L156.449 78.0134H114.702C111.687 78.0134 109.243 80.1994 109.243 82.8967C109.243 85.594 111.687 87.78 114.702 87.78H157.021L159.128 123.787C155.545 124.325 152.286 125.916 149.81 128.373C146.911 131.25 145.439 134.957 145.665 138.81L146.046 145.352L132.933 145.971C129.109 146.144 125.587 147.648 123.016 150.204C120.452 152.754 119.147 156.039 119.341 159.472L119.649 164.563C119.843 167.976 121.522 171.122 124.377 173.421C125.236 174.114 126.176 174.691 127.165 175.173C125.554 179.2 124.316 183.036 123.487 186.617C122.158 192.336 121.862 198.016 122.554 203.533H37.715L34.7434 178.012ZM84.5927 118.955C84.5927 116.932 85.4715 115.032 87.0676 113.605C88.7172 112.129 90.8842 111.391 93.0507 111.391C95.2172 111.391 97.3842 112.129 99.0338 113.605C100.63 115.033 101.509 116.932 101.509 118.955C101.509 120.978 100.63 122.878 99.0332 124.305C95.7346 127.256 90.3662 127.256 87.0671 124.305C85.4715 122.878 84.5927 120.978 84.5927 118.955ZM40.5551 227.922L38.852 213.299H124.886C125.962 216.296 127.349 219.217 129.06 222.033C130.309 224.088 131.72 226.051 133.265 227.922H40.5551ZM161.008 235.565C140.589 227.785 129.555 208.474 134.175 188.601C135.032 184.903 136.399 180.854 138.235 176.543L156.89 175.665C151.637 197.269 154.235 212.371 164.648 220.602C165.686 221.422 166.975 221.825 168.26 221.825C169.771 221.825 171.273 221.268 172.352 220.175C174.349 218.154 174.135 215.068 171.876 213.283C164.362 207.344 163.118 194.189 168.222 175.133L191.25 174.05C188.655 184.345 185.753 202.266 198.511 223.707C199.492 225.357 201.381 226.297 203.334 226.297C204.199 226.297 205.077 226.113 205.894 225.724C208.555 224.456 209.564 221.499 208.147 219.119C196.069 198.819 200.316 181.943 202.606 173.516L218.489 172.769C215.739 191.327 214.31 214.36 234.245 233.908C217.202 238.481 185.08 244.758 161.008 235.565Z" fill="#FCA311"/>
<path d="M90.188 78.0134C87.1733 78.0134 84.7295 80.1994 84.7295 82.8967C84.7295 85.594 87.1733 87.78 90.188 87.78H90.2191C93.2339 87.78 95.6623 85.594 95.6623 82.8967C95.6623 80.1994 93.2027 78.0134 90.188 78.0134Z" fill="#FCA311"/>
</svg>
