<svg width="60" height="60" viewBox="0 0 60 60" fill="none" xmlns="http://www.w3.org/2000/svg">
<path d="M59.5422 55.7573C53.8519 51.3957 54.4008 45.8194 55.1266 41.1705C56.4541 40.6912 57.3604 39.4979 57.2794 38.1528L57.2085 36.9243C57.1067 35.2312 55.4859 33.9246 53.5881 34.0098L50.4364 34.1585L50.3451 32.5904C50.2907 31.6672 49.8352 30.8162 49.0623 30.1944C48.4015 29.6626 47.5784 29.3553 46.7087 29.3081L45.2047 3.61538C45.0811 1.5142 43.0707 -0.103573 40.7227 0.00517696C39.5884 0.0586146 38.543 0.505568 37.7793 1.26377C37.0149 2.02268 36.6268 2.99944 36.6866 4.01405L37.2279 13.2619H33.6205C33.7295 11.8623 33.1291 10.3422 31.9244 9.25129C30.6627 8.10894 29.0533 7.71144 27.4429 8.10085C26.3189 6.58632 24.3916 5.62773 22.3137 5.62773C21.3719 5.62773 20.4659 5.81441 19.6386 6.17417C18.3724 4.91616 16.5466 4.16932 14.6218 4.16932C12.1728 4.16932 9.95017 5.34366 8.75986 7.21433C7.361 7.45245 6.17384 8.27546 5.42646 9.55187C4.75283 10.7024 4.53773 12.0525 4.76751 13.2618H4.36323C1.9572 13.2618 0 15.0125 0 17.1645C0 18.9448 1.34004 20.4493 3.1648 20.9164L5.60305 41.855L3.8231 43.4471C3.31139 43.9047 3.31139 44.6469 3.82297 45.1045C4.07882 45.3334 4.41406 45.4479 4.74943 45.4479C5.08467 45.4479 5.41991 45.3335 5.67563 45.1047L5.9527 44.8569L7.24965 55.9946C7.31921 56.5917 7.88174 57.0452 8.55261 57.0452H34.5213C35.4636 57.711 36.5024 58.2683 37.6141 58.692C40.1243 59.6505 42.915 60 45.6513 60C51.4738 60 57.0473 58.4169 59.1307 57.7511C59.5705 57.6105 59.8935 57.2712 59.9782 56.8603C60.063 56.4493 59.8969 56.0291 59.5422 55.7573ZM53.7237 36.3505C53.7378 36.3498 53.752 36.3495 53.766 36.3495C54.2022 36.3495 54.5687 36.6563 54.5922 37.0475L54.6631 38.276C54.6875 38.6805 54.3378 39.0274 53.8856 39.0492L53.8784 39.0495C53.8764 39.0497 53.8745 39.0497 53.8724 39.0498L32.1969 40.0691C31.9792 40.0792 31.7684 40.0121 31.6033 39.8792C31.4395 39.7472 31.3432 39.5684 31.332 39.372L31.258 38.1504C31.2469 37.9539 31.3227 37.7643 31.4714 37.6164C31.6191 37.4696 31.8198 37.3834 32.0364 37.3735C32.0374 37.3735 32.0383 37.3734 32.0392 37.3734L53.7237 36.3505ZM39.7256 2.83268C40.0213 2.53913 40.4243 2.36616 40.8604 2.34565C41.7659 2.3037 42.5405 2.92784 42.5883 3.73807L44.0909 29.4078L40.8057 29.5623L39.303 3.891C39.2801 3.50182 39.4301 3.126 39.7256 2.83268ZM46.4018 31.6463C46.7356 31.6299 47.0578 31.7339 47.3102 31.9369C47.5625 32.1399 47.7111 32.4157 47.7285 32.7128L47.82 34.2818L37.6671 34.7607L37.5757 33.1917C37.5581 32.8926 37.6734 32.604 37.9002 32.3789C38.1274 32.1535 38.4372 32.0207 38.7727 32.0049L46.4018 31.6463ZM7.74733 10.6394C8.05467 10.1145 8.62794 9.48847 9.61414 9.48637C10.1397 9.48531 10.6137 9.20336 10.8181 8.77023C11.465 7.39902 12.958 6.51308 14.6215 6.51308C16.0757 6.51308 17.4376 7.2107 18.1758 8.33371C18.368 8.62609 18.6923 8.82964 19.0652 8.89187C19.4378 8.95375 19.8225 8.86855 20.1195 8.65773C20.7519 8.20878 21.5105 7.97148 22.3136 7.97148C23.7663 7.97148 25.091 8.78863 25.6099 10.0047C25.746 10.3237 26.0307 10.5736 26.3898 10.6893C26.7487 10.8051 27.1463 10.775 27.4785 10.607C28.4409 10.1203 29.3097 10.2184 30.0606 10.8985C30.7614 11.533 31.1108 12.4959 30.9862 13.2617H7.45454C7.17589 12.4933 7.27401 11.4476 7.74733 10.6394ZM8.33842 42.7229L20.1035 32.1997C20.7956 32.5374 21.5636 32.7072 22.3322 32.7071C23.5229 32.7071 24.7141 32.3015 25.6206 31.4907C26.4986 30.7054 26.9823 29.6607 26.9823 28.5491C26.9823 27.4374 26.4988 26.3928 25.6208 25.6075C23.8075 23.9858 20.8571 23.9858 19.0438 25.6075C18.1658 26.3928 17.6823 27.4375 17.6823 28.5491C17.6823 29.2578 17.8796 29.939 18.2497 30.5435L7.98903 39.721L5.81685 21.0671H15.7619C16.4854 21.0671 17.072 20.5424 17.072 19.8951C17.072 19.2477 16.4854 18.7231 15.7619 18.7231H4.36323C4.31711 18.7231 4.05615 18.7082 3.86921 18.6584C3.14803 18.4675 2.62009 17.8704 2.62009 17.1645C2.62009 16.305 3.40192 15.6057 4.3631 15.6057H6.66013H31.8994C31.9005 15.6057 31.9014 15.6058 31.9024 15.6058C31.9035 15.6058 31.9044 15.6057 31.9054 15.6057H37.3652L37.5477 18.7232H27.5285C26.8049 18.7232 26.2184 19.2479 26.2184 19.8952C26.2184 20.5426 26.8049 21.0672 27.5285 21.0672H37.6849L38.1908 29.709C37.3308 29.8381 36.5488 30.2199 35.9545 30.8096C35.2586 31.5001 34.9053 32.3898 34.9595 33.3144L35.051 34.8845L31.9039 35.0329C30.9862 35.0745 30.1409 35.4355 29.5239 36.0491C28.9085 36.661 28.5952 37.4495 28.6419 38.2733L28.7159 39.4951C28.7624 40.3142 29.1653 41.0693 29.8504 41.6211C30.0566 41.7873 30.2822 41.9259 30.5197 42.0415C30.1331 43.0079 29.8358 43.9285 29.637 44.7881C29.3178 46.1606 29.247 47.5238 29.4131 48.8478H9.05161L8.33842 42.7229ZM20.3023 28.5492C20.3023 28.0638 20.5132 27.6077 20.8962 27.2651C21.2921 26.911 21.8122 26.7339 22.3322 26.7339C22.8521 26.7339 23.3722 26.911 23.7681 27.2651C24.1512 27.6078 24.3621 28.0637 24.3621 28.5492C24.3621 29.0347 24.1512 29.4907 23.768 29.8332C22.9763 30.5414 21.6879 30.5414 20.8961 29.8332C20.5132 29.4907 20.3023 29.0347 20.3023 28.5492ZM9.73322 54.7012L9.32449 51.1917H29.9727C30.2308 51.911 30.5637 52.612 30.9744 53.2878C31.2741 53.7811 31.6129 54.2523 31.9836 54.7012H9.73322ZM38.6418 56.5357C33.7415 54.6683 31.0932 50.0337 32.202 45.2644C32.4076 44.3767 32.7359 43.4051 33.1764 42.3703L37.6535 42.1597C36.3929 47.3446 37.0163 50.969 39.5155 52.9444C39.7646 53.1412 40.0741 53.238 40.3823 53.238C40.7449 53.238 41.1056 53.1042 41.3646 52.8421C41.8437 52.357 41.7925 51.6164 41.2502 51.1878C39.4468 49.7625 39.1484 46.6053 40.3733 42.0318L45.9001 41.7719C45.2773 44.2428 44.5808 48.5438 47.6426 53.6898C47.8781 54.0858 48.3314 54.3114 48.8001 54.3114C49.0078 54.3114 49.2184 54.2671 49.4146 54.1737C50.0532 53.8696 50.2954 53.1599 49.9553 52.5885C47.0565 47.7166 48.0758 43.6664 48.6255 41.6438L52.4373 41.4645C51.7773 45.9184 51.4345 51.4464 56.2188 56.1378C52.1286 57.2355 44.4192 58.7419 38.6418 56.5357Z" fill="#FCA311"/>
<path d="M21.6451 18.7232C20.9216 18.7232 20.3351 19.2479 20.3351 19.8952C20.3351 20.5425 20.9216 21.0672 21.6451 21.0672H21.6526C22.3761 21.0672 22.959 20.5425 22.959 19.8952C22.959 19.2479 22.3687 18.7232 21.6451 18.7232Z" fill="#FCA311"/>
</svg>
