<svg width="50" height="55" viewBox="0 0 50 55" fill="none" xmlns="http://www.w3.org/2000/svg">
<path d="M25.0021 48.9503C34.3866 48.9503 42.0214 41.7492 42.0214 32.8977C42.0214 24.0463 34.3866 16.8451 25.0021 16.8451C15.6175 16.8451 7.98267 24.0462 7.98267 32.8977C7.98267 41.7492 15.6175 48.9503 25.0021 48.9503ZM24.1479 18.4793V21.5184C24.1479 21.9633 24.5303 22.324 25.0021 22.324C25.4738 22.324 25.8562 21.9633 25.8562 21.5184V18.4793C33.4512 18.8753 39.587 24.5159 40.2521 31.6164H37.0666C36.5949 31.6164 36.2124 31.9771 36.2124 32.422C36.2124 32.867 36.5949 33.2277 37.0666 33.2277H40.3085C40.1282 40.7699 33.7874 46.9026 25.8561 47.3161V44.277C25.8561 43.8321 25.4737 43.4713 25.0019 43.4713C24.5302 43.4713 24.1478 43.8321 24.1478 44.277V47.3161C16.1774 46.9006 9.81381 40.7091 9.69389 33.1159H12.9941C13.4659 33.1159 13.8483 32.7551 13.8483 32.3102C13.8483 31.8653 13.4659 31.5045 12.9941 31.5045H9.76256C10.4811 24.4567 16.5928 18.8731 24.1479 18.4793Z" fill="#FCA311"/>
<path d="M49.2062 14.6916L44.0962 9.87186C43.5844 9.38911 42.904 9.12335 42.1802 9.12335C41.4564 9.12335 40.776 9.38922 40.2642 9.87186C39.7524 10.3546 39.4706 10.9964 39.4706 11.679C39.4706 12.1243 39.5912 12.5519 39.8167 12.9296L38.0875 14.5606C36.211 13.3669 34.1827 12.4461 32.0562 11.8141V8.14581H35.8716C36.9706 8.14581 37.8647 7.3989 37.8647 6.48077V1.66504C37.8647 0.746905 36.9706 0 35.8716 0H19.6756C19.2038 0 18.8214 0.360723 18.8214 0.805665C18.8214 1.25061 19.2038 1.61133 19.6756 1.61133H35.8715C36.0254 1.61133 36.1229 1.66622 36.1562 1.69727V6.4494C36.123 6.48012 36.0255 6.53448 35.8715 6.53448H14.133C13.9791 6.53448 13.8817 6.48012 13.8483 6.4494V1.69727C13.8818 1.66622 13.9792 1.61133 14.133 1.61133H15.9528C16.4245 1.61133 16.807 1.25061 16.807 0.805665C16.807 0.360723 16.4245 0 15.9528 0H14.133C13.0341 0 12.1399 0.746905 12.1399 1.66504V6.48077C12.1399 7.3989 13.0341 8.14581 14.133 8.14581H17.9481V11.8192C15.7738 12.4679 13.7354 13.4078 11.8853 14.5908L10.1832 12.9854C10.4086 12.6077 10.5293 12.18 10.5293 11.7348C10.5293 11.0521 10.2474 10.4104 9.73568 9.92761C9.22385 9.44486 8.54346 9.1791 7.81968 9.1791C7.0959 9.1791 6.4154 9.44497 5.90368 9.92761L0.793711 14.7473C0.281882 15.2301 0 15.8718 0 16.5545C0 17.2371 0.281882 17.879 0.793711 18.3616C1.30554 18.8444 1.98593 19.1103 2.70971 19.1103C3.1319 19.1103 3.53907 19.0192 3.90694 18.8479L5.63103 20.4741C3.06881 24.0169 1.56863 28.2949 1.56863 32.8977C1.56863 37.196 2.87804 41.3633 5.3553 44.9489C5.51907 45.186 5.79264 45.3148 6.07179 45.3148C6.23169 45.3148 6.39342 45.2724 6.53738 45.184C6.93258 44.9412 7.04419 44.442 6.78669 44.0692C4.49063 40.7459 3.27712 36.8829 3.27712 32.8977C3.27712 21.5988 13.023 12.4066 25.0023 12.4066C29.4124 12.4066 33.6578 13.6457 37.2794 15.9898C39.3115 17.305 41.0728 18.9161 42.509 20.7568C42.5353 20.7981 42.5658 20.8375 42.6006 20.8748C43.6243 22.2067 44.4792 23.6568 45.1433 25.2014C45.3205 25.6137 45.8188 25.8125 46.2559 25.6452C46.693 25.4779 46.9037 25.0082 46.7264 24.5958C46.0924 23.1212 45.2971 21.7265 44.3572 20.4294L46.0931 18.7922C46.4609 18.9634 46.8681 19.0545 47.2903 19.0545C48.0141 19.0545 48.6946 18.7886 49.2063 18.3059C49.7181 17.8231 50 17.1814 50 16.4987C49.9999 15.8161 49.718 15.1743 49.2062 14.6916ZM2.00153 17.2222C1.61111 16.854 1.61111 16.2549 2.00153 15.8865L7.1115 11.0668C7.30671 10.8827 7.56308 10.7906 7.81957 10.7906C8.07594 10.7906 8.33242 10.8827 8.52763 11.0668C8.71681 11.2453 8.8209 11.4823 8.8209 11.7347C8.8209 11.9869 8.71681 12.2241 8.52763 12.4024V12.4025L8.44301 12.4823C8.44278 12.4825 8.44267 12.4826 8.44244 12.4829C8.44221 12.4831 8.4421 12.4832 8.44187 12.4834L3.47529 17.1679C3.44932 17.1872 3.42392 17.2078 3.40001 17.2304C3.38714 17.2425 3.37575 17.2553 3.36402 17.268C2.97098 17.5888 2.37475 17.5742 2.00153 17.2222ZM6.65639 19.1626L5.21646 17.8044L9.04652 14.1921L10.4915 15.5549C9.07089 16.6144 7.78369 17.8258 6.65639 19.1626ZM19.6564 11.376V8.14581H30.3477V11.373C28.6099 10.9909 26.8191 10.7953 25.0021 10.7953C23.1636 10.7953 21.3741 10.9966 19.6564 11.376ZM39.4851 15.5212L40.9534 14.1363L44.7834 17.7487L43.3305 19.1191C42.2059 17.7898 40.9176 16.583 39.4851 15.5212ZM47.9982 17.1666C47.6078 17.5348 46.9726 17.5348 46.5822 17.1666L41.5579 12.4278C41.5577 12.4275 41.5576 12.4274 41.5573 12.4272C41.5571 12.427 41.557 12.4269 41.5568 12.4267L41.4721 12.3469C41.0817 11.9786 41.0817 11.3795 41.4721 11.0112C41.8626 10.643 42.4977 10.6429 42.8883 11.0112L47.9982 15.8309C48.3885 16.1991 48.3885 16.7983 47.9982 17.1666Z" fill="#FCA311"/>
<path d="M46.8509 27.4434C46.3906 27.5406 46.1007 27.9713 46.2037 28.4055C46.551 29.8707 46.7271 31.3821 46.7271 32.8976C46.7272 44.1964 36.9813 53.3887 25.0021 53.3887C18.9084 53.3887 13.0567 50.9519 8.94722 46.7029C8.62924 46.3742 8.08894 46.3509 7.74043 46.6507C7.39192 46.9506 7.36709 47.4601 7.68508 47.7889C12.1174 52.3717 18.4292 55.0001 25.0021 55.0001C37.9234 55.0001 48.4356 45.0849 48.4356 32.8977C48.4356 31.2641 48.2456 29.6344 47.871 28.0539C47.7681 27.6197 47.3119 27.3467 46.8509 27.4434Z" fill="#FCA311"/>
<path d="M20.2586 37.6443C20.4771 37.6443 20.6958 37.5656 20.8626 37.4083L22.8896 35.4964C23.4982 35.8697 24.2235 36.0875 25.0019 36.0875C27.1449 36.0875 28.8885 34.4431 28.8885 32.4218C28.8885 31.6874 28.6575 31.0035 28.2617 30.4294L32.5892 26.3478C32.9228 26.0332 32.9228 25.523 32.5892 25.2084C32.2556 24.8938 31.7147 24.8938 31.3812 25.2084L27.0406 29.3025C26.4476 28.9563 25.7492 28.756 25.0021 28.756C22.8591 28.756 21.1156 30.4004 21.1156 32.4218C21.1156 33.1266 21.328 33.7852 21.695 34.3445L19.6547 36.2689C19.3211 36.5835 19.3211 37.0937 19.6547 37.4083C19.8214 37.5657 20.04 37.6443 20.2586 37.6443ZM25.0021 30.3674C26.203 30.3674 27.1802 31.289 27.1802 32.4219C27.1802 33.5548 26.2032 34.4763 25.0021 34.4763C23.8011 34.4763 22.824 33.5548 22.824 32.4219C22.8239 31.289 23.801 30.3674 25.0021 30.3674Z" fill="#FCA311"/>
</svg>
