<svg width="35" height="36" viewBox="0 0 35 36" fill="none" xmlns="http://www.w3.org/2000/svg">
<g filter="url(#filter0_d)">
<path d="M30.9186 15.034C30.8376 12.0597 29.6425 9.20744 27.5434 6.97923L29.6589 5.07704C29.8585 4.91259 29.8784 4.62723 29.7033 4.43975C29.5283 4.25222 29.2245 4.23354 29.0249 4.39798C29.0141 4.40684 29.0039 4.4161 28.994 4.42581L26.8785 6.32665C26.8305 6.28149 26.7824 6.23226 26.729 6.18665C24.3507 4.05792 21.2224 2.8245 17.9392 2.72097C17.9392 2.71691 17.9416 2.71374 17.9416 2.70968V0.903227H19.384C19.6495 0.903227 19.8647 0.701017 19.8647 0.451613C19.8647 0.20221 19.6495 0 19.384 0H15.5376C15.2721 0 15.0569 0.20221 15.0569 0.451613C15.0569 0.701017 15.2721 0.903227 15.5376 0.903227H16.98V2.70968C16.98 2.71329 16.98 2.71645 16.98 2.72052C9.55118 2.96941 3.74374 8.82803 4.00872 15.8061C4.13432 19.1137 5.63582 22.2433 8.19073 24.5226C10.6843 26.7605 14.0024 28.0065 17.4512 28C17.5704 28 17.6894 27.9985 17.8079 27.9955C25.2388 27.817 31.1086 22.0139 30.9186 15.034ZM17.7834 27.0927C10.881 27.227 5.16976 22.0799 5.02685 15.5964C4.88495 9.15968 10.2874 3.81602 17.1382 3.61697C17.2493 3.61291 17.3589 3.61291 17.4695 3.61291C24.3733 3.62047 29.9634 8.88363 29.9553 15.3685C29.9475 21.7279 24.5513 26.9256 17.7834 27.0927Z" fill="white"/>
<path d="M17.4837 13.0273C17.1094 13.0253 16.7425 13.1214 16.4275 13.3039L10.0903 7.58013C9.8993 7.41354 9.59491 7.41832 9.41046 7.59082C9.23053 7.75909 9.23053 8.02588 9.41046 8.19415L15.778 13.944C15.6231 14.1949 15.5404 14.477 15.5376 14.7643C15.5313 15.7293 16.3923 16.5163 17.4608 16.522C18.5293 16.5277 19.4006 15.75 19.4069 14.785C19.4133 13.8199 18.5522 13.033 17.4837 13.0273ZM17.4608 15.6327C16.9297 15.6327 16.4992 15.2439 16.4992 14.7643C16.4992 14.2846 16.9297 13.8958 17.4608 13.8958C17.9919 13.8958 18.4223 14.2846 18.4223 14.7643C18.4223 15.2439 17.9918 15.6327 17.4608 15.6327Z" fill="white"/>
</g>
<defs>
<filter id="filter0_d" x="0" y="0" width="34.9231" height="36" filterUnits="userSpaceOnUse" color-interpolation-filters="sRGB">
<feFlood flood-opacity="0" result="BackgroundImageFix"/>
<feColorMatrix in="SourceAlpha" type="matrix" values="0 0 0 0 0 0 0 0 0 0 0 0 0 0 0 0 0 0 127 0"/>
<feOffset dy="4"/>
<feGaussianBlur stdDeviation="2"/>
<feColorMatrix type="matrix" values="0 0 0 0 0 0 0 0 0 0 0 0 0 0 0 0 0 0 0.25 0"/>
<feBlend mode="normal" in2="BackgroundImageFix" result="effect1_dropShadow"/>
<feBlend mode="normal" in="SourceGraphic" in2="effect1_dropShadow" result="shape"/>
</filter>
</defs>
</svg>
