<svg width="51" height="55" viewBox="0 0 51 55" fill="none" xmlns="http://www.w3.org/2000/svg">
<g clip-path="url(#clip0)" filter="url(#filter0_d)">
<path d="M39.8438 0.770805H11.1562C7.64123 0.770805 4.78125 3.42385 4.78125 6.68454V41.4277C4.78125 44.2811 7.28423 46.6022 10.3594 46.6022H45.4219C45.8625 46.6022 46.2188 46.271 46.2188 45.863V6.68454C46.2188 3.42385 43.3588 0.770805 39.8438 0.770805ZM6.375 6.68454C6.375 4.23847 8.51939 2.24924 11.1562 2.24924H39.8438C42.4806 2.24924 44.625 4.23847 44.625 6.68454V36.2532H10.3594C8.79989 36.2532 7.38783 36.8497 6.375 37.8092V6.68454ZM10.3594 45.1238C8.16239 45.1238 6.375 43.4657 6.375 41.4277C6.375 39.3897 8.16239 37.7316 10.3594 37.7316H44.625V39.21H10.3594C9.04134 39.21 7.96875 40.205 7.96875 41.4277C7.96875 42.6504 9.04134 43.6453 10.3594 43.6453H44.625V45.1238H10.3594ZM44.625 40.6885V42.1669H10.3594C9.9195 42.1669 9.5625 41.835 9.5625 41.4277C9.5625 41.0204 9.9195 40.6885 10.3594 40.6885H44.625Z" fill="white"/>
<path d="M16.7344 19.9498V29.6002C16.7344 30.0083 17.0906 30.3394 17.5312 30.3394H33.4688C33.9094 30.3394 34.2656 30.0083 34.2656 29.6002V19.9498C37.8468 19.5809 40.6406 16.7564 40.6406 13.3375C40.6406 9.66949 37.4236 6.68453 33.4688 6.68453C32.8352 6.68453 32.2145 6.76585 31.6112 6.91591C30.349 5.00799 28.0859 3.72767 25.5 3.72767C22.9141 3.72767 20.651 5.00799 19.3888 6.91591C18.7855 6.76585 18.1648 6.68453 17.5312 6.68453C13.5764 6.68453 10.3594 9.66949 10.3594 13.3375C10.3594 16.7564 13.1532 19.5809 16.7344 19.9498ZM18.3281 28.861V27.3826H32.6719V28.861H18.3281ZM17.5312 8.16297C17.9281 8.16297 18.3186 8.20436 18.7003 8.2805C18.462 8.94136 18.3281 9.64583 18.3281 10.3806H19.9219C19.9219 7.52724 22.4249 5.2061 25.5 5.2061C28.5751 5.2061 31.0781 7.52724 31.0781 10.3806H32.6719C32.6719 9.64583 32.538 8.94136 32.2997 8.2805C32.6814 8.20436 33.0719 8.16297 33.4688 8.16297C36.5439 8.16297 39.0469 10.4841 39.0469 13.3375C39.0469 16.1909 36.5439 18.512 33.4688 18.512C33.0281 18.512 32.6719 18.8432 32.6719 19.2512V25.9042H18.3281V19.2512C18.3281 18.8432 17.9719 18.512 17.5312 18.512C14.4561 18.512 11.9531 16.1909 11.9531 13.3375C11.9531 10.4841 14.4561 8.16297 17.5312 8.16297Z" fill="white"/>
<path d="M37.4531 13.3375H35.8594C35.8594 14.5601 34.7868 15.5551 33.4688 15.5551V17.0336C35.6657 17.0336 37.4531 15.3755 37.4531 13.3375Z" fill="white"/>
<path d="M15.1406 31.8179H35.8594V33.2963H15.1406V31.8179Z" fill="white"/>
</g>
<defs>
<filter id="filter0_d" x="-4" y="0.0315857" width="59" height="55.3098" filterUnits="userSpaceOnUse" color-interpolation-filters="sRGB">
<feFlood flood-opacity="0" result="BackgroundImageFix"/>
<feColorMatrix in="SourceAlpha" type="matrix" values="0 0 0 0 0 0 0 0 0 0 0 0 0 0 0 0 0 0 127 0"/>
<feOffset dy="4"/>
<feGaussianBlur stdDeviation="2"/>
<feColorMatrix type="matrix" values="0 0 0 0 0 0 0 0 0 0 0 0 0 0 0 0 0 0 0.25 0"/>
<feBlend mode="normal" in2="BackgroundImageFix" result="effect1_dropShadow"/>
<feBlend mode="normal" in="SourceGraphic" in2="effect1_dropShadow" result="shape"/>
</filter>
<clipPath id="clip0">
<rect width="51" height="47.3098" fill="white" transform="translate(0 0.0315857)"/>
</clipPath>
</defs>
</svg>
