<svg width="50" height="58" viewBox="0 0 50 58" fill="none" xmlns="http://www.w3.org/2000/svg">
<g filter="url(#filter0_d)">
<path d="M39.0625 0.78125H10.9375C7.49141 0.78125 4.6875 3.58516 4.6875 7.03125V43.75C4.6875 46.7656 7.14141 49.2188 10.1562 49.2188H44.5312C44.9633 49.2188 45.3125 48.8688 45.3125 48.4375V7.03125C45.3125 3.58516 42.5086 0.78125 39.0625 0.78125ZM6.25 7.03125C6.25 4.44609 8.35234 2.34375 10.9375 2.34375H39.0625C41.6477 2.34375 43.75 4.44609 43.75 7.03125V38.2813H10.1562C8.62734 38.2813 7.24297 38.9117 6.25 39.9258V7.03125ZM10.1562 47.6563C8.00234 47.6563 6.25 45.9039 6.25 43.75C6.25 41.5961 8.00234 39.8438 10.1562 39.8438H43.75V41.4063H10.1562C8.86406 41.4063 7.8125 42.4578 7.8125 43.75C7.8125 45.0422 8.86406 46.0938 10.1562 46.0938H43.75V47.6563H10.1562ZM43.75 42.9688V44.5313H10.1562C9.725 44.5313 9.375 44.1805 9.375 43.75C9.375 43.3195 9.725 42.9688 10.1562 42.9688H43.75Z" fill="#14213D"/>
<path d="M16.4062 21.0508V31.25C16.4062 31.6812 16.7555 32.0312 17.1875 32.0312H32.8125C33.2445 32.0312 33.5938 31.6812 33.5938 31.25V21.0508C37.1047 20.6609 39.8438 17.6758 39.8438 14.0625C39.8438 10.1859 36.6898 7.03125 32.8125 7.03125C32.1914 7.03125 31.5828 7.11719 30.9914 7.27578C29.7539 5.25937 27.5352 3.90625 25 3.90625C22.4648 3.90625 20.2461 5.25937 19.0086 7.27578C18.4172 7.11719 17.8086 7.03125 17.1875 7.03125C13.3102 7.03125 10.1562 10.1859 10.1562 14.0625C10.1562 17.6758 12.8953 20.6609 16.4062 21.0508ZM17.9688 30.4688V28.9062H32.0312V30.4688H17.9688ZM17.1875 8.59375C17.5766 8.59375 17.9594 8.6375 18.3336 8.71797C18.1 9.41641 17.9688 10.1609 17.9688 10.9375H19.5312C19.5312 7.92188 21.9852 5.46875 25 5.46875C28.0148 5.46875 30.4688 7.92188 30.4688 10.9375H32.0312C32.0312 10.1609 31.9 9.41641 31.6664 8.71797C32.0406 8.6375 32.4234 8.59375 32.8125 8.59375C35.8273 8.59375 38.2812 11.0469 38.2812 14.0625C38.2812 17.0781 35.8273 19.5312 32.8125 19.5312C32.3805 19.5312 32.0312 19.8813 32.0312 20.3125V27.3438H17.9688V20.3125C17.9688 19.8813 17.6195 19.5312 17.1875 19.5312C14.1727 19.5312 11.7188 17.0781 11.7188 14.0625C11.7188 11.0469 14.1727 8.59375 17.1875 8.59375Z" fill="#14213D"/>
<path d="M36.7188 14.0625H35.1562C35.1562 15.3547 34.1047 16.4063 32.8125 16.4063V17.9688C34.9664 17.9688 36.7188 16.2164 36.7188 14.0625Z" fill="#14213D"/>
<path d="M14.8438 33.5938H35.1562V35.1563H14.8438V33.5938Z" fill="#14213D"/>
</g>
<defs>
<filter id="filter0_d" x="-4" y="0" width="58" height="58" filterUnits="userSpaceOnUse" color-interpolation-filters="sRGB">
<feFlood flood-opacity="0" result="BackgroundImageFix"/>
<feColorMatrix in="SourceAlpha" type="matrix" values="0 0 0 0 0 0 0 0 0 0 0 0 0 0 0 0 0 0 127 0"/>
<feOffset dy="4"/>
<feGaussianBlur stdDeviation="2"/>
<feColorMatrix type="matrix" values="0 0 0 0 0 0 0 0 0 0 0 0 0 0 0 0 0 0 0.25 0"/>
<feBlend mode="normal" in2="BackgroundImageFix" result="effect1_dropShadow"/>
<feBlend mode="normal" in="SourceGraphic" in2="effect1_dropShadow" result="shape"/>
</filter>
</defs>
</svg>
