<svg width="45" height="45" viewBox="0 0 45 45" fill="none" xmlns="http://www.w3.org/2000/svg">
<path d="M22.5 0C10.0632 0 0 10.0641 0 22.5C0 34.9368 10.0641 45 22.5 45C34.9368 45 45 34.9359 45 22.5C45 10.0632 34.9358 0 22.5 0ZM22.5 41.4844C12.0065 41.4844 3.51562 32.9928 3.51562 22.5C3.51562 12.0065 12.0072 3.51562 22.5 3.51562C32.9935 3.51562 41.4844 12.0072 41.4844 22.5C41.4844 32.9935 32.9927 41.4844 22.5 41.4844Z" fill="#14213D"/>
<path d="M22.5 18.8375C21.5292 18.8375 20.7422 19.6245 20.7422 20.5953V31.915C20.7422 32.8859 21.5292 33.6729 22.5 33.6729C23.4708 33.6729 24.2578 32.8858 24.2578 31.915V20.5953C24.2578 19.6245 23.4708 18.8375 22.5 18.8375Z" fill="#14213D"/>
<path d="M22.5 16.6852C23.8106 16.6852 24.873 15.6227 24.873 14.3121C24.873 13.0015 23.8106 11.9391 22.5 11.9391C21.1894 11.9391 20.127 13.0015 20.127 14.3121C20.127 15.6227 21.1894 16.6852 22.5 16.6852Z" fill="#14213D"/>
</svg>
