<svg width="28" height="28" viewBox="0 0 28 28" fill="none" xmlns="http://www.w3.org/2000/svg">
<g clip-path="url(#clip0)">
<path d="M22.9997 14C22.4474 14 21.9997 14.4478 21.9997 15V24.9999C21.9997 25.5522 21.552 25.9999 20.9997 25.9999H2.99996C2.44766 25.9999 1.99995 25.5522 1.99995 24.9999V5.00016C1.99995 4.44786 2.44766 4.00015 2.99996 4.00015H14.9998C15.5521 4.00015 15.9998 3.55244 15.9998 3.00015C15.9998 2.44785 15.5521 2.0002 14.9998 2.0002H2.99996C1.34313 2.0002 0 3.34333 0 5.00016V24.9999C0 26.6567 1.34313 27.9998 2.99996 27.9998H20.9997C22.6566 27.9998 23.9997 26.6567 23.9997 24.9999V15C23.9997 14.4478 23.552 14 22.9997 14Z" fill="white"/>
<path d="M26.8791 1.12189C26.1611 0.403779 25.1872 0.000425063 24.1717 0.000542249C23.1557 -0.0023874 22.1808 0.40167 21.4648 1.12254L8.2929 14.2933C8.18362 14.4034 8.10118 14.5372 8.05191 14.6843L6.05195 20.6842C5.8774 21.2082 6.1607 21.7745 6.6847 21.9489C6.78636 21.9828 6.89282 22.0001 6.99993 22.0002C7.10727 22 7.21397 21.9828 7.31592 21.9492L13.3158 19.9493C13.4632 19.9001 13.5971 19.8172 13.7068 19.7073L26.8787 6.53548C28.3737 5.04065 28.3738 2.61689 26.8791 1.12189ZM25.4647 5.12245L12.4648 18.1223L8.58089 19.4193L9.87386 15.5403L22.8787 2.54049C23.5936 1.82694 24.7517 1.82812 25.4653 2.54307C25.8061 2.88461 25.9982 3.34696 25.9997 3.82948C26.0009 4.31457 25.8083 4.78003 25.4647 5.12245Z" fill="white"/>
</g>
<defs>
<clipPath id="clip0">
<rect width="28" height="28" fill="white"/>
</clipPath>
</defs>
</svg>

