<svg width="50" height="50" viewBox="0 0 50 50" fill="none" xmlns="http://www.w3.org/2000/svg">
<path d="M12.8531 49.8781C13.0204 49.9575 13.219 50 13.4239 50C13.9781 49.9943 14.4193 49.6868 14.4109 49.3113C14.4065 49.1089 14.2685 48.9291 14.1885 48.7432C12.9197 45.7923 12.3439 43.1707 12.2598 40.8523C11.9725 32.9242 22.2697 37.1633 28.3014 42.3164C28.5503 42.546 28.9894 42.6452 29.395 42.5644C32.6131 41.9061 35.5796 44.134 34.4695 47.2254C34.0666 48.3472 33.768 49.1002 33.7589 49.1228C33.6167 49.4842 33.9304 49.8569 34.4657 49.9547C34.7647 50.0085 35.0825 49.9646 35.3293 49.8385C35.7642 49.6103 45.9892 44.1785 49.2825 35.0452C52.6135 25.8397 43.2855 16.8495 42.9196 16.4754C42.6018 16.1707 41.9766 16.097 41.527 16.311C41.2343 16.4527 41.0754 16.6866 41.1067 16.9275C41.1874 17.922 41.1758 18.9154 41.0736 19.9021C40.7924 22.6193 37.2096 21.5556 36.8954 18.842C35.3627 5.78331 17.861 0.117707 17.6833 0.0638563C17.1815 -0.0948601 16.5876 0.0525194 16.3555 0.392626C16.2761 0.507412 16.2468 0.637786 16.2698 0.763909C17.2839 6.12767 15.4376 8.49708 10.5007 14.8287C8.50172 17.3824 6.03015 20.5624 3.06511 24.8094C-7.507 39.9669 12.6461 49.7832 12.8531 49.8781ZM4.86442 25.389C4.86133 25.389 4.85955 25.3855 4.86131 25.383C7.80568 21.163 10.2758 18.0004 12.253 15.4551C16.5205 9.9799 26.5622 5.15192 31.028 10.4666C32.9923 12.8043 34.4755 15.6177 34.8567 18.9398C35.8834 27.8633 34.1918 31.6867 33.1003 33.1718C32.9414 33.4071 32.7364 33.6253 32.4918 33.8223C32.107 34.0901 32.1133 34.5195 32.5085 34.7802C32.887 35.0311 33.4871 35.0381 33.8781 34.7972C34.3902 34.4109 34.8826 34.0146 35.3551 33.6091C39.7997 29.7944 49.2988 29.2415 47.317 34.7533C46.4193 37.2431 44.9523 39.4577 43.3152 41.3507C41.4287 43.5322 38.6561 41.4026 38.6561 38.5186C38.6561 38.1445 38.2086 37.8398 37.6587 37.8398C37.4433 37.8398 37.2363 37.8851 37.0648 37.9716C32.5738 40.3128 26.9935 38.9419 24.8882 34.3356C23.6849 31.7029 22.8529 28.5133 23.2788 25.0574C23.3269 24.6862 22.9192 24.3574 22.3692 24.3262C22.1664 24.3135 21.9636 24.3432 21.7879 24.4126C21.6994 24.4498 15.9763 26.7399 12.6433 32.0977C9.88282 36.5352 2.85585 40.4571 2.08019 35.2889C1.6442 32.3839 2.3065 29.0672 4.86743 25.3952C4.86919 25.3927 4.8675 25.389 4.86442 25.389Z" fill="#14213D"/>
</svg>
