<svg width="50" height="50" viewBox="0 0 50 50" fill="none" xmlns="http://www.w3.org/2000/svg">
<path d="M4.16667 35.8333V0.416626H0V37.9167C0 38.4692 0.219493 38.9991 0.610194 39.3898C1.0009 39.7805 1.5308 40 2.08333 40H50V35.8333H4.16667Z" fill="#FCA311"/>
<path d="M18.7502 22.1666C18.7502 21.6141 18.5307 21.0841 18.14 20.6934C17.7493 20.3027 17.2194 20.0833 16.6668 20.0833H10.4168C9.8643 20.0833 9.33439 20.3027 8.94369 20.6934C8.55299 21.0841 8.3335 21.6141 8.3335 22.1666V36.7499H18.7502V22.1666Z" fill="#FCA311"/>
<path d="M33.3332 13.8333C33.3332 13.2808 33.1137 12.7509 32.723 12.3602C32.3323 11.9695 31.8024 11.75 31.2498 11.75H24.9998C24.4473 11.75 23.9174 11.9695 23.5267 12.3602C23.136 12.7509 22.9165 13.2808 22.9165 13.8333V36.75H33.3332V13.8333Z" fill="#FCA311"/>
<path d="M47.9167 5.49996C47.9167 4.94743 47.6972 4.41752 47.3065 4.02682C46.9158 3.63612 46.3859 3.41663 45.8333 3.41663H39.5833C39.0308 3.41663 38.5009 3.63612 38.1102 4.02682C37.7195 4.41752 37.5 4.94743 37.5 5.49996V36.75H47.9167V5.49996Z" fill="#FCA311"/>
</svg>
