<svg width="17" height="58" viewBox="0 0 17 58" fill="none" xmlns="http://www.w3.org/2000/svg">
<path d="M14.5 6.04163C14.5 2.71048 11.7895 0 8.45826 0C5.127 0 2.41663 2.71048 2.41663 6.04163V43.6593C0.874305 45.2405 0 47.3551 0 49.5416C0 54.2051 3.79492 58 8.45837 58C13.1217 58 16.9166 54.2051 16.9166 49.5416C16.9166 47.3551 16.0422 45.2405 14.5 43.6593V6.04163ZM8.45826 55.5834C5.12711 55.5834 2.41663 52.8729 2.41663 49.5417C2.41663 47.8307 3.13291 46.2424 4.43451 45.0706C4.68826 44.8406 4.83337 44.5149 4.83337 44.1727V6.04163C4.83337 4.04267 6.45941 2.41663 8.45837 2.41663C10.4573 2.41663 12.0834 4.04267 12.0834 6.04163V44.1726C12.0834 44.5148 12.2285 44.8405 12.4822 45.0705C13.7838 46.2423 14.5001 47.8306 14.5001 49.5416C14.5 52.8729 11.7895 55.5834 8.45826 55.5834Z" fill="#14213D"/>
<path d="M9.6667 44.034V17.5417C9.6667 16.6896 9.14488 16 8.5 16C7.85512 16 7.3333 16.6896 7.3333 17.5417V44.034C5.97825 44.6725 5 46.3678 5 48.375C5 50.9254 6.56997 53 8.5 53C10.43 53 12 50.9254 12 48.375C12 46.3678 11.0218 44.6725 9.6667 44.034ZM8.5 49.9167C7.85633 49.9167 7.3333 49.2257 7.3333 48.375C7.3333 47.5244 7.85622 46.8333 8.5 46.8333C9.14367 46.8333 9.6667 47.5243 9.6667 48.375C9.6667 49.2257 9.14378 49.9167 8.5 49.9167Z" fill="#EB5757"/>
</svg>
