
<svg width="80" height="80" viewBox="0 0 80 80" fill="none" xmlns="http://www.w3.org/2000/svg">
<path d="M40 0C17.9431 0 0 17.9431 0 40C0 62.0569 17.9431 80 40 80C62.0569 80 80 62.0569 80 40C80 17.9431 62.0569 0 40 0ZM40 76.9231C19.6415 76.9231 3.07692 60.3585 3.07692 40C3.07692 19.6415 19.6415 3.07692 40 3.07692C60.3585 3.07692 76.9231 19.6415 76.9231 40C76.9231 60.3585 60.3585 76.9231 40 76.9231Z" fill="black"/>
<path d="M39.9999 56.9231C39.1491 56.9231 38.4614 57.6108 38.4614 58.4615V61.5385C38.4614 62.3892 39.1491 63.0769 39.9999 63.0769C40.8507 63.0769 41.5384 62.3892 41.5384 61.5385V58.4615C41.5384 57.6108 40.8507 56.9231 39.9999 56.9231Z" fill="black"/>
<path d="M40.1739 13.8477C40.1155 13.8477 40.057 13.8462 39.997 13.8462C36.7416 13.8462 33.6801 15.1 31.3585 17.3908C28.9955 19.7215 27.6924 22.8338 27.6924 26.1538C27.6924 27.0046 28.3801 27.6923 29.2308 27.6923C30.0816 27.6923 30.7693 27.0046 30.7693 26.1538C30.7693 23.6646 31.7462 21.3292 33.5185 19.5815C35.2924 17.8323 37.6539 16.8662 40.1324 16.9246C44.9955 16.9923 49.1616 21.1585 49.2293 26.0215C49.2739 29.2277 47.6924 32.1785 44.997 33.9169C40.9047 36.5569 38.4616 41.2215 38.4616 46.3969V50.7692C38.4616 51.62 39.1493 52.3077 40.0001 52.3077C40.8508 52.3077 41.5385 51.62 41.5385 50.7692V46.3969C41.5385 42.3323 43.5016 38.5431 46.6647 36.5015C50.257 34.1846 52.3662 30.2508 52.3062 25.9785C52.2139 19.3831 46.7708 13.94 40.1739 13.8477Z" fill="black"/>
</svg>
