<svg width="232" height="274" viewBox="0 0 232 274" fill="none" xmlns="http://www.w3.org/2000/svg">
<path d="M4.95 263C4.65 263 4.395 262.91 4.185 262.73C4.005 262.52 3.915 262.265 3.915 261.965V232.58C3.915 232.25 4.005 231.995 4.185 231.815C4.395 231.605 4.65 231.5 4.95 231.5H7.245C7.575 231.5 7.83 231.605 8.01 231.815C8.22 231.995 8.325 232.25 8.325 232.58V245H23.805V232.58C23.805 232.25 23.895 231.995 24.075 231.815C24.285 231.605 24.54 231.5 24.84 231.5H27.135C27.465 231.5 27.72 231.605 27.9 231.815C28.11 231.995 28.215 232.25 28.215 232.58V261.965C28.215 262.265 28.11 262.52 27.9 262.73C27.69 262.91 27.435 263 27.135 263H24.84C24.54 263 24.285 262.91 24.075 262.73C23.895 262.52 23.805 262.265 23.805 261.965V249.05H8.325V261.965C8.325 262.265 8.22 262.52 8.01 262.73C7.8 262.91 7.545 263 7.245 263H4.95ZM45.039 263.45C41.739 263.45 39.174 262.52 37.344 260.66C35.544 258.8 34.584 256.325 34.464 253.235L34.419 251.3L34.464 249.365C34.584 246.305 35.559 243.845 37.389 241.985C39.219 240.095 41.769 239.15 45.039 239.15C48.309 239.15 50.859 240.095 52.689 241.985C54.519 243.845 55.494 246.305 55.614 249.365C55.644 249.695 55.659 250.34 55.659 251.3C55.659 252.26 55.644 252.905 55.614 253.235C55.494 256.325 54.519 258.8 52.689 260.66C50.889 262.52 48.339 263.45 45.039 263.45ZM45.039 259.985C46.929 259.985 48.414 259.385 49.494 258.185C50.604 256.985 51.204 255.26 51.294 253.01C51.324 252.71 51.339 252.14 51.339 251.3C51.339 250.46 51.324 249.89 51.294 249.59C51.204 247.34 50.604 245.615 49.494 244.415C48.414 243.215 46.929 242.615 45.039 242.615C43.149 242.615 41.649 243.215 40.539 244.415C39.429 245.615 38.844 247.34 38.784 249.59L38.739 251.3L38.784 253.01C38.844 255.26 39.429 256.985 40.539 258.185C41.649 259.385 43.149 259.985 45.039 259.985ZM62.3289 263C62.0289 263 61.7739 262.91 61.5639 262.73C61.3839 262.52 61.2939 262.265 61.2939 261.965V240.635C61.2939 240.335 61.3839 240.095 61.5639 239.915C61.7739 239.705 62.0289 239.6 62.3289 239.6H64.3539C64.6539 239.6 64.8939 239.705 65.0739 239.915C65.2839 240.095 65.3889 240.335 65.3889 240.635V242.21C66.9489 240.17 69.1239 239.15 71.9139 239.15C75.2439 239.15 77.5989 240.53 78.9789 243.29C79.6989 242.03 80.7189 241.025 82.0389 240.275C83.3589 239.525 84.8439 239.15 86.4939 239.15C88.9539 239.15 90.9639 239.99 92.5239 241.67C94.0839 243.35 94.8639 245.78 94.8639 248.96V261.965C94.8639 262.265 94.7589 262.52 94.5489 262.73C94.3689 262.91 94.1289 263 93.8289 263H91.7139C91.4139 263 91.1589 262.91 90.9489 262.73C90.7689 262.52 90.6789 262.265 90.6789 261.965V249.365C90.6789 247.025 90.1839 245.345 89.1939 244.325C88.2339 243.305 86.9589 242.795 85.3689 242.795C83.9589 242.795 82.7439 243.32 81.7239 244.37C80.7039 245.39 80.1939 247.055 80.1939 249.365V261.965C80.1939 262.265 80.0889 262.52 79.8789 262.73C79.6989 262.91 79.4589 263 79.1589 263H77.0439C76.7439 263 76.4889 262.91 76.2789 262.73C76.0989 262.52 76.0089 262.265 76.0089 261.965V249.365C76.0089 247.025 75.4989 245.345 74.4789 244.325C73.4889 243.305 72.2289 242.795 70.6989 242.795C69.2889 242.795 68.0739 243.32 67.0539 244.37C66.0339 245.39 65.5239 247.04 65.5239 249.32V261.965C65.5239 262.265 65.4189 262.52 65.2089 262.73C65.0289 262.91 64.7889 263 64.4889 263H62.3289ZM110.644 263.45C107.554 263.45 105.079 262.505 103.219 260.615C101.389 258.695 100.384 256.085 100.204 252.785L100.159 251.255L100.204 249.77C100.414 246.53 101.434 243.95 103.264 242.03C105.124 240.11 107.569 239.15 110.599 239.15C113.929 239.15 116.509 240.215 118.339 242.345C120.169 244.445 121.084 247.295 121.084 250.895V251.66C121.084 251.96 120.979 252.215 120.769 252.425C120.589 252.605 120.349 252.695 120.049 252.695H104.479V253.1C104.569 255.05 105.154 256.715 106.234 258.095C107.344 259.445 108.799 260.12 110.599 260.12C111.979 260.12 113.104 259.85 113.974 259.31C114.874 258.74 115.534 258.155 115.954 257.555C116.224 257.195 116.419 256.985 116.539 256.925C116.689 256.835 116.944 256.79 117.304 256.79H119.509C119.779 256.79 120.004 256.865 120.184 257.015C120.364 257.165 120.454 257.375 120.454 257.645C120.454 258.305 120.034 259.1 119.194 260.03C118.384 260.96 117.229 261.77 115.729 262.46C114.259 263.12 112.564 263.45 110.644 263.45ZM116.809 249.59V249.455C116.809 247.385 116.239 245.705 115.099 244.415C113.989 243.095 112.489 242.435 110.599 242.435C108.709 242.435 107.209 243.095 106.099 244.415C105.019 245.705 104.479 247.385 104.479 249.455V249.59H116.809ZM139.115 263C138.815 263 138.56 262.91 138.35 262.73C138.17 262.52 138.08 262.265 138.08 261.965V232.58C138.08 232.25 138.17 231.995 138.35 231.815C138.56 231.605 138.815 231.5 139.115 231.5H151.445C154.655 231.5 157.07 232.265 158.69 233.795C160.31 235.325 161.12 237.335 161.12 239.825C161.12 241.505 160.73 242.9 159.95 244.01C159.2 245.12 158.3 245.93 157.25 246.44C158.51 247.07 159.575 248.045 160.445 249.365C161.315 250.685 161.75 252.2 161.75 253.91C161.75 255.59 161.36 257.12 160.58 258.5C159.83 259.88 158.705 260.975 157.205 261.785C155.705 262.595 153.905 263 151.805 263H139.115ZM150.77 244.82C152.66 244.82 154.1 244.385 155.09 243.515C156.11 242.645 156.62 241.43 156.62 239.87C156.62 238.34 156.125 237.17 155.135 236.36C154.145 235.55 152.69 235.145 150.77 235.145H142.49V244.82H150.77ZM151.22 259.355C153.11 259.355 154.58 258.845 155.63 257.825C156.71 256.805 157.25 255.5 157.25 253.91C157.25 252.26 156.71 250.94 155.63 249.95C154.58 248.93 153.11 248.42 151.22 248.42H142.49V259.355H151.22ZM176.914 263.45C173.824 263.45 171.349 262.505 169.489 260.615C167.659 258.695 166.654 256.085 166.474 252.785L166.429 251.255L166.474 249.77C166.684 246.53 167.704 243.95 169.534 242.03C171.394 240.11 173.839 239.15 176.869 239.15C180.199 239.15 182.779 240.215 184.609 242.345C186.439 244.445 187.354 247.295 187.354 250.895V251.66C187.354 251.96 187.249 252.215 187.039 252.425C186.859 252.605 186.619 252.695 186.319 252.695H170.749V253.1C170.839 255.05 171.424 256.715 172.504 258.095C173.614 259.445 175.069 260.12 176.869 260.12C178.249 260.12 179.374 259.85 180.244 259.31C181.144 258.74 181.804 258.155 182.224 257.555C182.494 257.195 182.689 256.985 182.809 256.925C182.959 256.835 183.214 256.79 183.574 256.79H185.779C186.049 256.79 186.274 256.865 186.454 257.015C186.634 257.165 186.724 257.375 186.724 257.645C186.724 258.305 186.304 259.1 185.464 260.03C184.654 260.96 183.499 261.77 181.999 262.46C180.529 263.12 178.834 263.45 176.914 263.45ZM183.079 249.59V249.455C183.079 247.385 182.509 245.705 181.369 244.415C180.259 243.095 178.759 242.435 176.869 242.435C174.979 242.435 173.479 243.095 172.369 244.415C171.289 245.705 170.749 247.385 170.749 249.455V249.59H183.079ZM202.094 263.45C199.004 263.45 196.529 262.505 194.669 260.615C192.839 258.695 191.834 256.085 191.654 252.785L191.609 251.255L191.654 249.77C191.864 246.53 192.884 243.95 194.714 242.03C196.574 240.11 199.019 239.15 202.049 239.15C205.379 239.15 207.959 240.215 209.789 242.345C211.619 244.445 212.534 247.295 212.534 250.895V251.66C212.534 251.96 212.429 252.215 212.219 252.425C212.039 252.605 211.799 252.695 211.499 252.695H195.929V253.1C196.019 255.05 196.604 256.715 197.684 258.095C198.794 259.445 200.249 260.12 202.049 260.12C203.429 260.12 204.554 259.85 205.424 259.31C206.324 258.74 206.984 258.155 207.404 257.555C207.674 257.195 207.869 256.985 207.989 256.925C208.139 256.835 208.394 256.79 208.754 256.79H210.959C211.229 256.79 211.454 256.865 211.634 257.015C211.814 257.165 211.904 257.375 211.904 257.645C211.904 258.305 211.484 259.1 210.644 260.03C209.834 260.96 208.679 261.77 207.179 262.46C205.709 263.12 204.014 263.45 202.094 263.45ZM208.259 249.59V249.455C208.259 247.385 207.689 245.705 206.549 244.415C205.439 243.095 203.939 242.435 202.049 242.435C200.159 242.435 198.659 243.095 197.549 244.415C196.469 245.705 195.929 247.385 195.929 249.455V249.59H208.259ZM218.95 263C218.65 263 218.395 262.91 218.185 262.73C218.005 262.52 217.915 262.265 217.915 261.965V240.68C217.915 240.38 218.005 240.125 218.185 239.915C218.395 239.705 218.65 239.6 218.95 239.6H221.02C221.32 239.6 221.575 239.705 221.785 239.915C221.995 240.125 222.1 240.38 222.1 240.68V242.66C223.33 240.62 225.43 239.6 228.4 239.6H230.155C230.455 239.6 230.695 239.705 230.875 239.915C231.085 240.095 231.19 240.335 231.19 240.635V242.48C231.19 242.78 231.085 243.02 230.875 243.2C230.695 243.38 230.455 243.47 230.155 243.47H227.455C225.835 243.47 224.56 243.95 223.63 244.91C222.7 245.84 222.235 247.115 222.235 248.735V261.965C222.235 262.265 222.13 262.52 221.92 262.73C221.71 262.91 221.455 263 221.155 263H218.95Z" fill="#FCA311"/>
<g clip-path="url(#clip0)">
<path d="M30.2851 112.478L50.1062 115.851L47.7764 128.603L27.9553 125.23C24.3065 124.61 20.8268 126.96 20.1832 130.482L15.5231 155.987C14.8799 159.508 17.3166 162.867 20.965 163.488L40.7861 166.861L38.4562 179.613L18.6352 176.24C7.68833 174.377 0.378655 164.303 2.30906 153.738L6.96913 128.233C8.89908 117.669 19.3378 110.615 30.2851 112.478Z" fill="#FF9F00"/>
<path d="M118.507 114.341L102.197 203.609C100.916 210.623 93.9204 215.35 86.6528 214.113L33.7962 205.119C26.5285 203.882 21.6305 197.131 22.9119 190.117L39.222 100.85L118.507 114.341Z" fill="#FDBF00"/>
<path d="M118.507 114.341L102.197 203.609C100.916 210.623 93.9204 215.35 86.6528 214.113L60.2247 209.616L78.865 107.596L118.507 114.341Z" fill="#FF9F00"/>
<path d="M132.886 110.214C130.952 120.797 120.538 127.836 109.57 125.969C103.491 124.935 98.5631 121.335 95.7636 116.519C90.2376 119.918 83.538 121.539 76.5343 120.348C69.5305 119.156 63.8096 115.421 59.8217 110.403C55.4846 114.004 49.578 115.761 43.4992 114.726C32.5313 112.86 25.2391 102.808 27.1731 92.2241C29.107 81.6394 39.5212 74.6019 50.4895 76.4683C53.793 77.0303 56.6689 78.4405 59.0788 80.1649C64.9152 72.085 75.1513 67.5156 85.8549 69.3372C96.5584 71.1587 104.558 78.8311 107.179 88.3497C110.055 87.5244 113.257 87.1489 116.56 87.7109C127.528 89.5786 134.82 99.6289 132.886 110.214Z" fill="#FFE1BA"/>
<path d="M132.886 110.214C130.952 120.797 120.538 127.836 109.57 125.969C103.491 124.935 98.5631 121.335 95.7636 116.519C90.2377 119.918 83.5381 121.539 76.5343 120.348L85.8544 69.3376C96.558 71.1591 104.557 78.8315 107.178 88.3501C110.054 87.5248 113.256 87.1493 116.56 87.7113C127.528 89.5786 134.82 99.6289 132.886 110.214Z" fill="#FFD396"/>
<path d="M202.714 112.478L182.893 115.851L185.223 128.603L205.044 125.23C208.693 124.61 212.173 126.96 212.816 130.482L217.476 155.987C218.12 159.508 215.683 162.867 212.035 163.488L192.213 166.861L194.543 179.613L214.364 176.24C225.311 174.377 232.621 164.303 230.69 153.738L226.03 128.233C224.1 117.669 213.662 110.615 202.714 112.478Z" fill="#FF7816"/>
<path d="M193.778 100.85L210.088 190.117C211.369 197.131 206.471 203.882 199.203 205.119L146.347 214.113C139.079 215.35 132.084 210.623 130.802 203.609L114.492 114.341L193.778 100.85Z" fill="#FDBF00"/>
<path d="M193.778 100.85L210.088 190.117C211.369 197.131 206.471 203.882 199.203 205.119L172.775 209.616L154.135 107.596L193.778 100.85Z" fill="#FF9F00"/>
<path d="M205.826 92.225C207.76 102.809 200.468 112.86 189.5 114.727C183.422 115.761 177.515 114.005 173.178 110.404C169.19 115.421 163.469 119.157 156.465 120.349C149.462 121.54 142.762 119.919 137.236 116.52C134.437 121.336 129.509 124.936 123.43 125.97C112.462 127.837 102.047 120.798 100.113 110.215C98.1793 99.6298 105.472 89.579 116.439 87.7126C119.743 87.1506 122.945 87.5261 125.821 88.3514C128.442 78.8324 136.441 71.16 147.145 69.3389C157.848 67.5178 168.084 72.0868 173.921 80.1667C176.331 78.4418 179.207 77.0321 182.51 76.4701C193.478 74.6028 203.893 81.6403 205.826 92.225Z" fill="#FFE1BA"/>
<path d="M205.826 92.2249C207.76 102.809 200.468 112.86 189.5 114.727C183.422 115.761 177.515 114.005 173.178 110.404C169.19 115.421 163.469 119.157 156.465 120.349L147.145 69.3385C157.849 67.5169 168.085 72.0863 173.921 80.1662C176.331 78.4413 179.207 77.0316 182.51 76.4696C193.478 74.6027 203.893 81.6402 205.826 92.2249Z" fill="#FFD396"/>
<path d="M123.209 13.1646V26.1139C123.209 29.7392 120.257 32.5885 116.5 32.5885C112.742 32.5885 109.791 29.7392 109.791 26.1139V13.1646C109.791 9.5384 112.742 6.69 116.5 6.69C120.257 6.69 123.209 9.5384 123.209 13.1646Z" fill="#77DD00"/>
<path d="M138.593 43.6407C136.876 43.6407 135.159 43.0084 133.849 41.7437C131.229 39.2147 131.229 35.1171 133.849 32.5881L143.336 23.433C145.956 20.904 150.202 20.904 152.823 23.433C155.443 25.962 155.443 30.0596 152.823 32.5885L143.336 41.7441C142.025 43.0088 140.309 43.6407 138.593 43.6407Z" fill="#66BB00"/>
<path d="M94.4071 43.6407C92.6905 43.6407 90.9738 43.0084 89.6638 41.7437L80.1768 32.5885C77.5563 30.0596 77.5563 25.962 80.1768 23.433C82.7974 20.904 87.0433 20.904 89.6638 23.433L99.1508 32.5885C101.771 35.1175 101.771 39.2151 99.1508 41.7441C97.8403 43.0088 96.1237 43.6407 94.4071 43.6407Z" fill="#77DD00"/>
<path d="M123.209 13.1646V26.1139C123.209 29.7392 120.257 32.5885 116.5 32.5885V6.69C120.257 6.69 123.209 9.5384 123.209 13.1646Z" fill="#66BB00"/>
</g>
<defs>
<clipPath id="clip0">
<rect width="229" height="221" fill="white" transform="translate(2)"/>
</clipPath>
</defs>
</svg>
