<svg width="120" height="120" viewBox="0 0 120 120" fill="none" xmlns="http://www.w3.org/2000/svg">
<path d="M85.861 53.7765L68.3384 43.6254L50.9366 33.5952C49.2447 32.6284 47.3112 32.3867 45.6193 32.8701C43.9275 33.3535 42.3565 34.4411 41.3897 36.1329C41.0272 36.6163 40.9064 37.2206 40.6647 37.8248C40.5438 38.1873 40.5438 38.6707 40.423 39.1541C40.423 39.2749 40.423 39.5166 40.423 39.6375V60.1813V80.7251C40.423 82.6586 41.2689 84.4713 42.4774 85.6798C43.8067 87.0091 45.4985 87.7342 47.432 87.7342C48.5196 87.7342 50.8157 86.7674 51.4199 86.4049L68.5801 76.4955H68.7009L68.8218 76.3746L86.5861 66.1027C88.278 65.136 89.3656 63.565 89.8489 61.7523C89.9698 61.3897 89.9698 60.9064 89.9698 60.423C89.9698 56.4351 85.861 53.7765 85.861 53.7765ZM83.4441 60.9064L65.9215 71.0574C65.8006 71.0574 65.6798 71.1783 65.6798 71.1783L48.5197 81.0876C48.3988 81.2085 47.7946 81.4502 47.5529 81.4502C47.3112 81.4502 47.0695 81.3293 46.8278 81.2085C46.707 81.0876 46.5861 80.7251 46.5861 80.4834V60.0604V39.6375V39.5166C46.5861 39.3958 46.5861 39.3958 46.5861 39.2749C46.5861 39.2749 46.5861 39.1541 46.707 39.1541C46.707 39.1541 46.8278 39.0333 46.8278 38.9124C46.9487 38.7916 47.1903 38.6707 47.3112 38.5499C47.5529 38.5499 47.7946 38.5499 47.9154 38.5499C48.0363 38.6707 48.1571 38.6707 48.278 38.7916L65.4381 48.7009C65.5589 48.8218 65.6798 48.8218 65.6798 48.8218H65.8006L83.3233 58.9728C83.565 59.0937 84.0483 59.4562 84.0483 59.8187C84.0483 60.3021 83.6858 60.7855 83.4441 60.9064Z" fill="#FCA311"/>
<path d="M102.417 17.6435C90.8157 5.92145 75.4683 0 60.1208 0C44.7734 0 29.426 5.8006 17.7039 17.5227C5.98187 29.3656 0.0604248 44.713 0.0604248 60.0604C0.0604248 75.4079 5.86103 90.7553 17.5831 102.477C29.3051 114.199 44.6526 120 60 120C75.3474 120 90.6949 114.199 102.417 102.477C114.139 90.7553 119.94 75.4079 119.94 60.0604C119.94 44.713 114.139 29.3656 102.417 17.6435ZM98.1873 98.1269C87.6737 108.64 73.8973 113.958 60.1208 113.958C46.3444 113.958 32.568 108.64 22.0544 98.1269C11.4199 87.6133 6.22357 73.8369 6.22357 60.0604C6.22357 46.284 11.5408 32.5076 22.0544 21.994C32.568 11.4804 46.3444 6.16314 60.1208 6.16314C73.8973 6.16314 87.6737 11.4804 98.1873 21.994C108.701 32.5076 114.018 46.284 114.018 60.0604C114.018 73.8369 108.822 87.6133 98.1873 98.1269Z" fill="#FCA311"/>
</svg>
