<svg width="75" height="77" viewBox="0 0 75 77" fill="none" xmlns="http://www.w3.org/2000/svg">
<path d="M72.0703 35.4922H40.4297V3.00781C40.4297 1.3466 39.1181 0 37.5 0C35.8819 0 34.5703 1.3466 34.5703 3.00781V35.4922H2.92969C1.31162 35.4922 0 36.8388 0 38.5C0 40.1612 1.31162 41.5078 2.92969 41.5078H34.5703V73.9922C34.5703 75.6534 35.8819 77 37.5 77C39.1181 77 40.4297 75.6534 40.4297 73.9922V41.5078H72.0703C73.6884 41.5078 75 40.1612 75 38.5C75 36.8388 73.6884 35.4922 72.0703 35.4922Z" fill="#14213D"/>
</svg>
