<svg width="161" height="161" viewBox="0 0 161 161" fill="none" xmlns="http://www.w3.org/2000/svg">
<path d="M157.919 0.849182H141.919C141.212 0.849182 140.534 1.13013 140.034 1.63023C139.534 2.13033 139.253 2.8086 139.253 3.51585C139.253 4.22309 139.534 4.90137 140.034 5.40147C140.534 5.90156 141.212 6.18252 141.919 6.18252H155.253V19.5158C155.253 20.2231 155.534 20.9014 156.034 21.4015C156.534 21.9016 157.212 22.1825 157.919 22.1825C158.626 22.1825 159.305 21.9016 159.805 21.4015C160.305 20.9014 160.586 20.2231 160.586 19.5158V3.51585C160.586 2.8086 160.305 2.13033 159.805 1.63023C159.305 1.13013 158.626 0.849182 157.919 0.849182V0.849182Z" fill="#FCA311"/>
<path d="M3.25254 22.1825C3.95979 22.1825 4.63806 21.9016 5.13816 21.4015C5.63826 20.9014 5.91921 20.2231 5.91921 19.5158V6.18252H19.2525C19.9598 6.18252 20.6381 5.90156 21.1382 5.40147C21.6383 4.90137 21.9192 4.22309 21.9192 3.51585C21.9192 2.8086 21.6383 2.13033 21.1382 1.63023C20.6381 1.13013 19.9598 0.849182 19.2525 0.849182H3.25254C2.5453 0.849182 1.86702 1.13013 1.36692 1.63023C0.866828 2.13033 0.585876 2.8086 0.585876 3.51585V19.5158C0.585876 20.2231 0.866828 20.9014 1.36692 21.4015C1.86702 21.9016 2.5453 22.1825 3.25254 22.1825Z" fill="#FCA311"/>
<path d="M157.919 139.516C157.212 139.516 156.534 139.797 156.034 140.297C155.534 140.797 155.253 141.475 155.253 142.183V155.516H141.919C141.212 155.516 140.534 155.797 140.034 156.297C139.534 156.797 139.253 157.475 139.253 158.183C139.253 158.89 139.534 159.568 140.034 160.068C140.534 160.568 141.212 160.849 141.919 160.849H157.919C158.626 160.849 159.305 160.568 159.805 160.068C160.305 159.568 160.586 158.89 160.586 158.183V142.183C160.586 141.475 160.305 140.797 159.805 140.297C159.305 139.797 158.626 139.516 157.919 139.516Z" fill="#FCA311"/>
<path d="M3.25254 160.849H19.2525C19.9598 160.849 20.6381 160.568 21.1382 160.068C21.6383 159.568 21.9192 158.89 21.9192 158.183C21.9192 157.475 21.6383 156.797 21.1382 156.297C20.6381 155.797 19.9598 155.516 19.2525 155.516H5.91921V142.183C5.91921 141.475 5.63826 140.797 5.13816 140.297C4.63806 139.797 3.95979 139.516 3.25254 139.516C2.5453 139.516 1.86702 139.797 1.36692 140.297C0.866828 140.797 0.585876 141.475 0.585876 142.183V158.183C0.585876 158.89 0.866828 159.568 1.36692 160.068C1.86702 160.568 2.5453 160.849 3.25254 160.849Z" fill="#FCA311"/>
<path d="M11.2525 14.1826V62.1826C11.2525 62.8898 11.5335 63.5681 12.0336 64.0682C12.5337 64.5683 13.212 64.8492 13.9192 64.8492H61.9192C62.6264 64.8492 63.3047 64.5683 63.8048 64.0682C64.3049 63.5681 64.5859 62.8898 64.5859 62.1826V14.1826C64.5859 13.4753 64.3049 12.797 63.8048 12.2969C63.3047 11.7969 62.6264 11.5159 61.9192 11.5159H13.9192C13.212 11.5159 12.5337 11.7969 12.0336 12.2969C11.5335 12.797 11.2525 13.4753 11.2525 14.1826ZM16.5859 16.8492H59.2525V59.5159H16.5859V16.8492Z" fill="#FCA311"/>
<path d="M51.2526 22.1826H24.5859C23.8786 22.1826 23.2004 22.4635 22.7003 22.9636C22.2002 23.4637 21.9192 24.142 21.9192 24.8492V51.5159C21.9192 52.2231 22.2002 52.9014 22.7003 53.4015C23.2004 53.9016 23.8786 54.1826 24.5859 54.1826H51.2526C51.9598 54.1826 52.6381 53.9016 53.1382 53.4015C53.6383 52.9014 53.9192 52.2231 53.9192 51.5159V24.8492C53.9192 24.142 53.6383 23.4637 53.1382 22.9636C52.6381 22.4635 51.9598 22.1826 51.2526 22.1826ZM48.5859 48.8492H27.2526V27.5159H48.5859V48.8492Z" fill="#FCA311"/>
<path d="M51.2526 107.516H24.5859C23.8786 107.516 23.2004 107.797 22.7003 108.297C22.2002 108.797 21.9192 109.475 21.9192 110.183V136.849C21.9192 137.556 22.2002 138.235 22.7003 138.735C23.2004 139.235 23.8786 139.516 24.5859 139.516H51.2526C51.9598 139.516 52.6381 139.235 53.1382 138.735C53.6383 138.235 53.9192 137.556 53.9192 136.849V110.183C53.9192 109.475 53.6383 108.797 53.1382 108.297C52.6381 107.797 51.9598 107.516 51.2526 107.516ZM48.5859 134.183H27.2526V112.849H48.5859V134.183Z" fill="#FCA311"/>
<path d="M136.586 22.1826H109.919C109.212 22.1826 108.534 22.4635 108.034 22.9636C107.533 23.4637 107.253 24.142 107.253 24.8492V51.5159C107.253 52.2231 107.533 52.9014 108.034 53.4015C108.534 53.9016 109.212 54.1826 109.919 54.1826H136.586C137.293 54.1826 137.971 53.9016 138.471 53.4015C138.972 52.9014 139.253 52.2231 139.253 51.5159V24.8492C139.253 24.142 138.972 23.4637 138.471 22.9636C137.971 22.4635 137.293 22.1826 136.586 22.1826ZM133.919 48.8492H112.586V27.5159H133.919V48.8492Z" fill="#FCA311"/>
<path d="M99.2525 64.6826H147.253C147.96 64.6826 148.638 64.4016 149.138 63.9015C149.638 63.4014 149.919 62.7231 149.919 62.0159V14.1826C149.919 13.4753 149.638 12.797 149.138 12.2969C148.638 11.7969 147.96 11.5159 147.253 11.5159H99.2525C98.5453 11.5159 97.867 11.7969 97.3669 12.2969C96.8668 12.797 96.5859 13.4753 96.5859 14.1826V62.0159C96.5859 62.7231 96.8668 63.4014 97.3669 63.9015C97.867 64.4016 98.5453 64.6826 99.2525 64.6826ZM101.919 16.8492H144.586V59.3492H101.919V16.8492Z" fill="#FCA311"/>
<path d="M11.2525 147.516C11.2525 148.223 11.5335 148.901 12.0336 149.401C12.5337 149.902 13.212 150.183 13.9192 150.183H61.9192C62.6264 150.183 63.3047 149.902 63.8048 149.401C64.3049 148.901 64.5859 148.223 64.5859 147.516V99.5158C64.5859 98.8086 64.3049 98.1303 63.8048 97.6302C63.3047 97.1301 62.6264 96.8492 61.9192 96.8492H13.9192C13.212 96.8492 12.5337 97.1301 12.0336 97.6302C11.5335 98.1303 11.2525 98.8086 11.2525 99.5158V147.516ZM16.5859 102.183H59.2525V144.849H16.5859V102.183Z" fill="#FCA311"/>
<path d="M72.5859 32.8492C73.2931 32.8492 73.9714 32.5683 74.4715 32.0682C74.9716 31.5681 75.2526 30.8898 75.2526 30.1826V16.8492H77.9192C78.6265 16.8492 79.3047 16.5683 79.8048 16.0682C80.3049 15.5681 80.5859 14.8898 80.5859 14.1826C80.5859 13.4753 80.3049 12.797 79.8048 12.2969C79.3047 11.7969 78.6265 11.5159 77.9192 11.5159H72.5859C71.8786 11.5159 71.2004 11.7969 70.7003 12.2969C70.2002 12.797 69.9192 13.4753 69.9192 14.1826V30.1826C69.9192 30.8898 70.2002 31.5681 70.7003 32.0682C71.2004 32.5683 71.8786 32.8492 72.5859 32.8492Z" fill="#FCA311"/>
<path d="M88.5859 16.8492C90.0586 16.8492 91.2526 15.6553 91.2526 14.1826C91.2526 12.7098 90.0586 11.5159 88.5859 11.5159C87.1131 11.5159 85.9192 12.7098 85.9192 14.1826C85.9192 15.6553 87.1131 16.8492 88.5859 16.8492Z" fill="#FCA311"/>
<path d="M83.2525 32.8492H88.5859C89.2931 32.8492 89.9714 32.5683 90.4715 32.0682C90.9716 31.5681 91.2525 30.8898 91.2525 30.1826V24.8492C91.2525 24.142 90.9716 23.4637 90.4715 22.9636C89.9714 22.4635 89.2931 22.1826 88.5859 22.1826C87.8786 22.1826 87.2004 22.4635 86.7003 22.9636C86.2002 23.4637 85.9192 24.142 85.9192 24.8492V27.5159H83.2525C82.5453 27.5159 81.867 27.7968 81.3669 28.2969C80.8668 28.797 80.5859 29.4753 80.5859 30.1826C80.5859 30.8898 80.8668 31.5681 81.3669 32.0682C81.867 32.5683 82.5453 32.8492 83.2525 32.8492Z" fill="#FCA311"/>
<path d="M88.5859 40.8492H83.2525C82.5453 40.8492 81.867 41.1302 81.3669 41.6303C80.8668 42.1304 80.5859 42.8086 80.5859 43.5159V54.1825C80.5859 54.8898 80.8668 55.5681 81.3669 56.0682C81.867 56.5683 82.5453 56.8492 83.2525 56.8492C83.9598 56.8492 84.6381 56.5683 85.1382 56.0682C85.6383 55.5681 85.9192 54.8898 85.9192 54.1825V46.1825H88.5859C89.2931 46.1825 89.9714 45.9016 90.4715 45.4015C90.9716 44.9014 91.2525 44.2231 91.2525 43.5159C91.2525 42.8086 90.9716 42.1304 90.4715 41.6303C89.9714 41.1302 89.2931 40.8492 88.5859 40.8492Z" fill="#FCA311"/>
<path d="M72.5859 64.8493H88.5859C89.2931 64.8493 89.9714 64.5683 90.4715 64.0682C90.9716 63.5681 91.2526 62.8898 91.2526 62.1826C91.2526 61.4753 90.9716 60.7971 90.4715 60.297C89.9714 59.7969 89.2931 59.5159 88.5859 59.5159H75.2526V40.8493C75.2526 40.142 74.9716 39.4637 74.4715 38.9636C73.9714 38.4635 73.2931 38.1826 72.5859 38.1826C71.8786 38.1826 71.2004 38.4635 70.7003 38.9636C70.2002 39.4637 69.9192 40.142 69.9192 40.8493V62.1826C69.9192 62.8898 70.2002 63.5681 70.7003 64.0682C71.2004 64.5683 71.8786 64.8493 72.5859 64.8493Z" fill="#FCA311"/>
<path d="M93.9192 128.849C93.212 128.849 92.5337 129.13 92.0336 129.63C91.5335 130.13 91.2525 130.809 91.2525 131.516V144.849H83.2525C82.5453 144.849 81.867 145.13 81.3669 145.63C80.8668 146.13 80.5859 146.809 80.5859 147.516C80.5859 148.223 80.8668 148.901 81.3669 149.402C81.867 149.902 82.5453 150.183 83.2525 150.183H93.9192C94.6265 150.183 95.3047 149.902 95.8048 149.402C96.3049 148.901 96.5859 148.223 96.5859 147.516V131.516C96.5859 130.809 96.3049 130.13 95.8048 129.63C95.3047 129.13 94.6265 128.849 93.9192 128.849Z" fill="#FCA311"/>
<path d="M72.5859 150.183C74.0586 150.183 75.2526 148.989 75.2526 147.516C75.2526 146.043 74.0586 144.849 72.5859 144.849C71.1131 144.849 69.9192 146.043 69.9192 147.516C69.9192 148.989 71.1131 150.183 72.5859 150.183Z" fill="#FCA311"/>
<path d="M72.5859 139.516C73.2931 139.516 73.9714 139.235 74.4715 138.735C74.9716 138.235 75.2526 137.556 75.2526 136.849V134.183H83.2526C83.9598 134.183 84.6381 133.902 85.1382 133.401C85.6383 132.901 85.9192 132.223 85.9192 131.516C85.9192 130.809 85.6383 130.13 85.1382 129.63C84.6381 129.13 83.9598 128.849 83.2526 128.849H72.5859C71.8786 128.849 71.2004 129.13 70.7003 129.63C70.2002 130.13 69.9192 130.809 69.9192 131.516V136.849C69.9192 137.556 70.2002 138.235 70.7003 138.735C71.2004 139.235 71.8786 139.516 72.5859 139.516Z" fill="#FCA311"/>
<path d="M72.5859 102.183C73.2931 102.183 73.9714 101.902 74.4715 101.401C74.9716 100.901 75.2526 100.223 75.2526 99.5158V86.1825H80.5859C81.2931 86.1825 81.9714 85.9016 82.4715 85.4015C82.9716 84.9014 83.2526 84.2231 83.2526 83.5158C83.2526 82.8086 82.9716 82.1303 82.4715 81.6302C81.9714 81.1301 81.2931 80.8492 80.5859 80.8492H72.5859C71.8786 80.8492 71.2004 81.1301 70.7003 81.6302C70.2002 82.1303 69.9192 82.8086 69.9192 83.5158V99.5158C69.9192 100.223 70.2002 100.901 70.7003 101.401C71.2004 101.902 71.8786 102.183 72.5859 102.183Z" fill="#FCA311"/>
<path d="M72.5859 75.5159H88.5859V88.8492C88.5859 89.5564 88.8668 90.2347 89.3669 90.7348C89.867 91.2349 90.5453 91.5159 91.2526 91.5159C91.9598 91.5159 92.6381 91.2349 93.1382 90.7348C93.6383 90.2347 93.9192 89.5564 93.9192 88.8492V72.8492C93.9192 72.1419 93.6383 71.4637 93.1382 70.9636C92.6381 70.4635 91.9598 70.1825 91.2526 70.1825H72.5859C71.8786 70.1825 71.2004 70.4635 70.7003 70.9636C70.2002 71.4637 69.9192 72.1419 69.9192 72.8492C69.9192 73.5564 70.2002 74.2347 70.7003 74.7348C71.2004 75.2349 71.8786 75.5159 72.5859 75.5159Z" fill="#FCA311"/>
<path d="M11.2525 88.8492C11.2525 89.5564 11.5335 90.2347 12.0336 90.7348C12.5337 91.2349 13.212 91.5158 13.9192 91.5158H29.9192C30.6264 91.5158 31.3047 91.2349 31.8048 90.7348C32.3049 90.2347 32.5859 89.5564 32.5859 88.8492C32.5859 88.1419 32.3049 87.4637 31.8048 86.9636C31.3047 86.4635 30.6264 86.1825 29.9192 86.1825H16.5859V83.5158C16.5859 82.8086 16.3049 82.1303 15.8048 81.6302C15.3047 81.1301 14.6264 80.8492 13.9192 80.8492C13.212 80.8492 12.5337 81.1301 12.0336 81.6302C11.5335 82.1303 11.2525 82.8086 11.2525 83.5158V88.8492Z" fill="#FCA311"/>
<path d="M24.5859 80.8492C25.2931 80.8492 25.9714 80.5682 26.4715 80.0681C26.9716 79.568 27.2525 78.8898 27.2525 78.1825V72.8492C27.2525 72.1419 26.9716 71.4637 26.4715 70.9636C25.9714 70.4635 25.2931 70.1825 24.5859 70.1825H13.9192C13.212 70.1825 12.5337 70.4635 12.0336 70.9636C11.5335 71.4637 11.2525 72.1419 11.2525 72.8492C11.2525 73.5564 11.5335 74.2347 12.0336 74.7348C12.5337 75.2349 13.212 75.5159 13.9192 75.5159H21.9192V78.1825C21.9192 78.8898 22.2002 79.568 22.7003 80.0681C23.2003 80.5682 23.8786 80.8492 24.5859 80.8492Z" fill="#FCA311"/>
<path d="M35.2525 70.1825C34.5453 70.1825 33.867 70.4635 33.3669 70.9636C32.8668 71.4637 32.5859 72.1419 32.5859 72.8492V78.1825C32.5859 78.8898 32.8668 79.568 33.3669 80.0681C33.867 80.5682 34.5453 80.8492 35.2525 80.8492H51.2525C51.9598 80.8492 52.6381 80.5682 53.1382 80.0681C53.6383 79.568 53.9192 78.8898 53.9192 78.1825C53.9192 77.4753 53.6383 76.797 53.1382 76.2969C52.6381 75.7968 51.9598 75.5159 51.2525 75.5159H37.9192V72.8492C37.9192 72.1419 37.6383 71.4637 37.1382 70.9636C36.6381 70.4635 35.9598 70.1825 35.2525 70.1825Z" fill="#FCA311"/>
<path d="M64.5859 72.8492C64.5859 72.1419 64.3049 71.4637 63.8048 70.9636C63.3047 70.4635 62.6265 70.1825 61.9192 70.1825C61.212 70.1825 60.5337 70.4635 60.0336 70.9636C59.5335 71.4637 59.2526 72.1419 59.2526 72.8492V86.1825H40.5859C39.8786 86.1825 39.2004 86.4635 38.7003 86.9636C38.2002 87.4637 37.9192 88.1419 37.9192 88.8492C37.9192 89.5564 38.2002 90.2347 38.7003 90.7348C39.2004 91.2349 39.8786 91.5159 40.5859 91.5159H61.9192C62.6265 91.5159 63.3047 91.2349 63.8048 90.7348C64.3049 90.2347 64.5859 89.5564 64.5859 88.8492V72.8492Z" fill="#FCA311"/>
<path d="M149.919 72.8492C149.919 72.1419 149.638 71.4637 149.138 70.9636C148.638 70.4635 147.96 70.1825 147.253 70.1825H131.253C130.545 70.1825 129.867 70.4635 129.367 70.9636C128.867 71.4637 128.586 72.1419 128.586 72.8492C128.586 73.5564 128.867 74.2347 129.367 74.7348C129.867 75.2349 130.545 75.5159 131.253 75.5159H144.586V78.1825C144.586 78.8898 144.867 79.568 145.367 80.0681C145.867 80.5682 146.545 80.8492 147.253 80.8492C147.96 80.8492 148.638 80.5682 149.138 80.0681C149.638 79.568 149.919 78.8898 149.919 78.1825V72.8492Z" fill="#FCA311"/>
<path d="M101.919 102.183C103.392 102.183 104.586 100.989 104.586 99.5158C104.586 98.0431 103.392 96.8492 101.919 96.8492C100.446 96.8492 99.2525 98.0431 99.2525 99.5158C99.2525 100.989 100.446 102.183 101.919 102.183Z" fill="#FCA311"/>
<path d="M139.253 88.8492V83.5158C139.253 82.8086 138.972 82.1303 138.471 81.6302C137.971 81.1301 137.293 80.8492 136.586 80.8492C135.879 80.8492 135.2 81.1301 134.7 81.6302C134.2 82.1303 133.919 82.8086 133.919 83.5158V86.1825H123.253C122.545 86.1825 121.867 86.4635 121.367 86.9636C120.867 87.4637 120.586 88.1419 120.586 88.8492C120.586 89.5564 120.867 90.2347 121.367 90.7348C121.867 91.2349 122.545 91.5158 123.253 91.5158H136.586C137.293 91.5158 137.971 91.2349 138.471 90.7348C138.972 90.2347 139.253 89.5564 139.253 88.8492Z" fill="#FCA311"/>
<path d="M136.586 118.183H125.919C125.212 118.183 124.534 118.464 124.034 118.964C123.533 119.464 123.253 120.142 123.253 120.849C123.253 121.556 123.533 122.235 124.034 122.735C124.534 123.235 125.212 123.516 125.919 123.516H133.919V126.183C133.919 126.89 134.2 127.568 134.7 128.068C135.2 128.568 135.879 128.849 136.586 128.849C137.293 128.849 137.971 128.568 138.471 128.068C138.972 127.568 139.253 126.89 139.253 126.183V120.849C139.253 120.142 138.972 119.464 138.471 118.964C137.971 118.464 137.293 118.183 136.586 118.183Z" fill="#FCA311"/>
<path d="M136.586 139.516C138.059 139.516 139.253 138.322 139.253 136.849C139.253 135.376 138.059 134.183 136.586 134.183C135.113 134.183 133.919 135.376 133.919 136.849C133.919 138.322 135.113 139.516 136.586 139.516Z" fill="#FCA311"/>
<path d="M115.253 123.516C116.725 123.516 117.919 122.322 117.919 120.849C117.919 119.376 116.725 118.183 115.253 118.183C113.78 118.183 112.586 119.376 112.586 120.849C112.586 122.322 113.78 123.516 115.253 123.516Z" fill="#FCA311"/>
<path d="M125.919 134.183H117.919V131.516C117.919 130.809 117.638 130.13 117.138 129.63C116.638 129.13 115.96 128.849 115.253 128.849C114.545 128.849 113.867 129.13 113.367 129.63C112.867 130.13 112.586 130.809 112.586 131.516V136.849C112.586 137.556 112.867 138.235 113.367 138.735C113.867 139.235 114.545 139.516 115.253 139.516H125.919C126.626 139.516 127.305 139.235 127.805 138.735C128.305 138.235 128.586 137.556 128.586 136.849C128.586 136.142 128.305 135.464 127.805 134.964C127.305 134.463 126.626 134.183 125.919 134.183Z" fill="#FCA311"/>
<path d="M112.586 80.8492C111.879 80.8492 111.2 81.1301 110.7 81.6302C110.2 82.1303 109.919 82.8086 109.919 83.5158V99.5158C109.919 100.223 110.2 100.901 110.7 101.401C111.2 101.902 111.879 102.183 112.586 102.183H125.586C126.293 102.183 126.971 101.902 127.472 101.401C127.972 100.901 128.253 100.223 128.253 99.5158C128.253 98.8086 127.972 98.1303 127.472 97.6302C126.971 97.1301 126.293 96.8492 125.586 96.8492H115.253V83.5158C115.253 82.8086 114.972 82.1303 114.472 81.6302C113.971 81.1301 113.293 80.8492 112.586 80.8492V80.8492Z" fill="#FCA311"/>
<path d="M120.586 70.1825H101.919C101.212 70.1825 100.534 70.4635 100.034 70.9636C99.5335 71.4637 99.2525 72.1419 99.2525 72.8492V88.8492C99.2525 89.5564 99.5335 90.2347 100.034 90.7348C100.534 91.2349 101.212 91.5159 101.919 91.5159C102.626 91.5159 103.305 91.2349 103.805 90.7348C104.305 90.2347 104.586 89.5564 104.586 88.8492V75.5159H120.586C121.293 75.5159 121.971 75.2349 122.471 74.7348C122.972 74.2347 123.253 73.5564 123.253 72.8492C123.253 72.1419 122.972 71.4637 122.471 70.9636C121.971 70.4635 121.293 70.1825 120.586 70.1825Z" fill="#FCA311"/>
<path d="M72.5859 123.516H93.9192C94.6265 123.516 95.3047 123.235 95.8048 122.735C96.3049 122.235 96.5859 121.556 96.5859 120.849V110.183C96.5859 109.475 96.3049 108.797 95.8048 108.297C95.3047 107.797 94.6265 107.516 93.9192 107.516H72.5859C71.8786 107.516 71.2004 107.797 70.7003 108.297C70.2002 108.797 69.9192 109.475 69.9192 110.183V120.849C69.9192 121.556 70.2002 122.235 70.7003 122.735C71.2004 123.235 71.8786 123.516 72.5859 123.516ZM75.2526 112.849H91.2526V118.183H75.2526V112.849Z" fill="#FCA311"/>
<path d="M104.586 150.183H147.253C147.96 150.183 148.638 149.902 149.138 149.401C149.638 148.901 149.919 148.223 149.919 147.516V110.183C149.919 109.475 149.638 108.797 149.138 108.297C148.638 107.797 147.96 107.516 147.253 107.516H104.586C103.879 107.516 103.2 107.797 102.7 108.297C102.2 108.797 101.919 109.475 101.919 110.183V147.516C101.919 148.223 102.2 148.901 102.7 149.401C103.2 149.902 103.879 150.183 104.586 150.183ZM107.253 112.849H144.586V144.849H107.253V112.849Z" fill="#FCA311"/>
<path d="M91.2525 96.8492H86.2525C85.5453 96.8492 84.867 97.1301 84.3669 97.6302C83.8668 98.1303 83.5859 98.8086 83.5859 99.5158C83.5859 100.223 83.8668 100.901 84.3669 101.401C84.867 101.902 85.5453 102.183 86.2525 102.183H91.2525C91.9598 102.183 92.6381 101.902 93.1382 101.401C93.6383 100.901 93.9192 100.223 93.9192 99.5158C93.9192 98.8086 93.6383 98.1303 93.1382 97.6302C92.6381 97.1301 91.9598 96.8492 91.2525 96.8492Z" fill="#FCA311"/>
<path d="M149.919 88.8492C149.919 88.142 149.638 87.4637 149.138 86.9636C148.638 86.4635 147.96 86.1826 147.253 86.1826C146.545 86.1826 145.867 86.4635 145.367 86.9636C144.867 87.4637 144.586 88.142 144.586 88.8492V96.8492H136.586C135.879 96.8492 135.2 97.1302 134.7 97.6303C134.2 98.1304 133.919 98.8086 133.919 99.5159C133.919 100.223 134.2 100.901 134.7 101.402C135.2 101.902 135.879 102.183 136.586 102.183H147.253C147.96 102.183 148.638 101.902 149.138 101.402C149.638 100.901 149.919 100.223 149.919 99.5159V88.8492Z" fill="#FCA311"/>
</svg>
