<svg width="75" height="75" viewBox="0 0 75 75" fill="none" xmlns="http://www.w3.org/2000/svg">
<path d="M53.0329 0H21.9671L0 21.9669V53.0331L21.9671 75H53.0329L75 53.0331V21.9669L53.0329 0ZM70.6055 51.2127L51.2127 70.6055H23.7873L4.39453 51.2127V23.7873L23.7873 4.39453H51.2128L70.6055 23.7873V51.2127Z" fill="#F02F2F"/>
<path d="M16.478 35.805C15.4673 35.4251 14.7092 35.2395 14.1003 35.0904C13.3736 34.9124 13.1043 34.8393 12.7542 34.6117C12.5345 34.4689 12.4217 34.123 12.4273 33.8697C12.4324 33.621 12.6669 33.1422 13.2735 32.9157C14.1098 32.6037 14.9016 32.5315 17.4942 34.4567L20.1144 30.9288C18.3527 29.6202 15.4042 27.43 11.7372 28.7985C9.56777 29.6079 8.07949 31.6086 8.03364 33.7764C8.00317 35.211 8.59819 37.1516 10.3595 38.2964C11.3527 38.9421 12.2183 39.154 13.0553 39.3588C13.602 39.4927 14.1674 39.6311 14.9323 39.9187C16.1134 40.3625 16.0206 40.8994 15.9854 41.1015C15.9062 41.559 15.2541 42.2358 14.106 42.2358C12.8955 42.2358 11.7354 41.7532 11.0032 40.9451L7.74683 43.896C9.32153 45.6336 11.6394 46.6303 14.106 46.6303C17.2244 46.6303 19.8359 44.6205 20.3156 41.8517C20.7706 39.2254 19.2643 36.8519 16.478 35.805Z" fill="#F02F2F"/>
<path d="M22.0208 32.9093H25.7543V46.4852H30.1489V32.9093H33.9128V28.5148H22.0208V32.9093Z" fill="#F02F2F"/>
<path d="M59.7993 40.5728C59.7993 40.5728 61.2542 40.5716 61.3822 40.5716C64.7477 40.5716 67.4856 37.8674 67.4856 34.5432C67.4856 31.219 64.7477 28.5148 61.3822 28.5148H55.4048V46.4853H59.7993V40.5728ZM61.3822 32.9093C62.3084 32.9093 63.0911 33.6575 63.0911 34.5432C63.0911 35.4288 62.3084 36.1771 61.3822 36.1771C61.0018 36.1771 60.4137 36.1793 59.8138 36.1821C59.8109 35.5516 59.8074 33.5705 59.8056 32.9093H61.3822Z" fill="#F02F2F"/>
<path d="M43.7327 28.5148C38.7781 28.5148 34.7473 32.5456 34.7473 37.5C34.7473 42.4544 38.7781 46.4852 43.7327 46.4852C48.6871 46.4852 52.7179 42.4544 52.7179 37.5C52.7179 32.5456 48.6871 28.5148 43.7327 28.5148ZM43.7327 42.0907C41.2013 42.0907 39.1418 40.0312 39.1418 37.5C39.1418 34.9687 41.2013 32.9093 43.7327 32.9093C46.2639 32.9093 48.3233 34.9687 48.3233 37.5C48.3233 40.0312 46.2639 42.0907 43.7327 42.0907Z" fill="#F02F2F"/>
</svg>
