<svg width="50" height="50" viewBox="0 0 50 50" fill="none" xmlns="http://www.w3.org/2000/svg">
<path d="M22.7272 5.2083C22.7272 2.33662 20.1781 0 17.0453 0C13.9124 0 11.3635 2.33662 11.3635 5.2083V37.6373C9.91305 39.0004 9.09082 40.8233 9.09082 42.7083C9.09082 46.7285 12.6597 50 17.0454 50C21.431 50 24.9999 46.7285 24.9999 42.7083C24.9999 40.8233 24.1775 39.0004 22.7272 37.6373V5.2083ZM17.0453 47.9167C13.9125 47.9167 11.3635 45.5801 11.3635 42.7084C11.3635 41.2334 12.0371 39.8642 13.2612 38.854C13.4998 38.6557 13.6363 38.3749 13.6363 38.0799V5.2083C13.6363 3.48506 15.1655 2.0833 17.0454 2.0833C18.9253 2.0833 20.4545 3.48506 20.4545 5.2083V38.0798C20.4545 38.3748 20.5909 38.6556 20.8296 38.8539C22.0537 39.8641 22.7273 41.2333 22.7273 42.7083C22.7272 45.5801 20.1781 47.9167 17.0453 47.9167Z" fill="#FCA311"/>
<path d="M18.1817 39.7751V21.875C18.1817 21.2992 17.6734 20.8333 17.0453 20.8333C16.4172 20.8333 15.9089 21.2992 15.9089 21.875V39.7751C14.5891 40.2066 13.6362 41.352 13.6362 42.7083C13.6362 44.4315 15.1654 45.8333 17.0453 45.8333C18.9252 45.8333 20.4544 44.4315 20.4544 42.7083C20.4544 41.352 19.5016 40.2066 18.1817 39.7751ZM17.0453 43.75C16.4184 43.75 15.9089 43.2831 15.9089 42.7083C15.9089 42.1335 16.4183 41.6666 17.0453 41.6666C17.6723 41.6666 18.1817 42.1334 18.1817 42.7083C18.1817 43.2831 17.6724 43.75 17.0453 43.75Z" fill="#FCA311"/>
<path d="M7.95457 33.3333H1.1364C0.508273 33.3333 0 33.7992 0 34.3749C0 34.9507 0.508273 35.4166 1.1364 35.4166H7.95457C8.58269 35.4166 9.09097 34.9507 9.09097 34.3749C9.09097 33.7992 8.58269 33.3333 7.95457 33.3333Z" fill="#FCA311"/>
<path d="M7.95474 29.1667H5.68205C5.05393 29.1667 4.54565 29.6327 4.54565 30.2084C4.54565 30.7841 5.05393 31.25 5.68205 31.25H7.95474C8.58286 31.25 9.09114 30.7841 9.09114 30.2084C9.09114 29.6327 8.58286 29.1667 7.95474 29.1667Z" fill="#FCA311"/>
<path d="M7.95474 25H5.68205C5.05393 25 4.54565 25.4659 4.54565 26.0417C4.54565 26.6175 5.05393 27.0834 5.68205 27.0834H7.95474C8.58286 27.0834 9.09114 26.6175 9.09114 26.0417C9.09114 25.4659 8.58286 25 7.95474 25Z" fill="#FCA311"/>
<path d="M1.1364 22.9167H7.95457C8.58269 22.9167 9.09097 22.4507 9.09097 21.875C9.09097 21.2992 8.58269 20.8333 7.95457 20.8333H1.1364C0.508273 20.8333 0 21.2992 0 21.875C0 22.4507 0.508273 22.9167 1.1364 22.9167Z" fill="#FCA311"/>
<path d="M1.1364 10.4166H7.95457C8.58269 10.4166 9.09097 9.95073 9.09097 9.37495C9.09097 8.79917 8.58269 8.33325 7.95457 8.33325H1.1364C0.508273 8.33325 0 8.79917 0 9.37495C0 9.95073 0.508273 10.4166 1.1364 10.4166Z" fill="#FCA311"/>
<path d="M7.95474 16.6667H5.68205C5.05393 16.6667 4.54565 17.1327 4.54565 17.7084C4.54565 18.2841 5.05393 18.75 5.68205 18.75H7.95474C8.58286 18.75 9.09114 18.2841 9.09114 17.7083C9.09114 17.1327 8.58286 16.6667 7.95474 16.6667Z" fill="#FCA311"/>
<path d="M7.95474 12.5H5.68205C5.05393 12.5 4.54565 12.9659 4.54565 13.5417C4.54565 14.1175 5.05393 14.5834 5.68205 14.5834H7.95474C8.58286 14.5834 9.09114 14.1175 9.09114 13.5417C9.09114 12.9659 8.58286 12.5 7.95474 12.5Z" fill="#FCA311"/>
<path d="M32.9546 16.6667H35.2273C37.1072 16.6667 38.6364 18.0684 38.6364 19.7917C38.6364 20.3675 39.1447 20.8334 39.7728 20.8334C40.4009 20.8334 40.9092 20.3675 40.9092 19.7917C40.9092 16.92 38.3602 14.5834 35.2274 14.5834H32.9547C29.822 14.5834 27.2729 16.92 27.2729 19.7917V28.125C27.2729 30.9967 29.822 33.3333 32.9547 33.3333H35.2273C38.36 33.3333 40.9091 30.9967 40.9091 28.125C40.9091 27.5492 40.4008 27.0833 39.7727 27.0833C39.1446 27.0833 38.6364 27.5492 38.6364 28.125C38.6364 29.8482 37.1072 31.25 35.2273 31.25H32.9546C31.0747 31.25 29.5455 29.8482 29.5455 28.125V19.7917C29.5455 18.0684 31.0747 16.6667 32.9546 16.6667Z" fill="#FCA311"/>
<path d="M46.591 14.5833C44.7111 14.5833 43.1819 15.985 43.1819 17.7083C43.1819 19.4315 44.7111 20.8333 46.591 20.8333C48.4709 20.8333 50.0001 19.4315 50.0001 17.7083C50.0001 15.9851 48.4709 14.5833 46.591 14.5833ZM46.591 18.75C45.964 18.75 45.4546 18.2831 45.4546 17.7083C45.4546 17.1335 45.9639 16.6666 46.591 16.6666C47.218 16.6666 47.7274 17.1334 47.7274 17.7083C47.7273 18.2831 47.2179 18.75 46.591 18.75Z" fill="#FCA311"/>
</svg>
