<svg width="63" height="50" viewBox="0 0 63 50" fill="none" xmlns="http://www.w3.org/2000/svg">
<path d="M52.1719 6.25H41.3438V4.6875C41.3438 2.10283 38.6942 0 35.4375 0H27.5625C24.3058 0 21.6562 2.10283 21.6562 4.6875V6.25H10.8281C8.1142 6.25 5.90625 8.00234 5.90625 10.1562V15.625C5.90625 16.4879 6.78776 17.1875 7.875 17.1875H8.95092L10.6518 45.5354C10.802 48.039 13.3934 50 16.5513 50H46.4487C49.6067 50 52.1981 48.039 52.3482 45.5354L54.0491 17.1875H55.125C56.2122 17.1875 57.0938 16.4879 57.0938 15.625V10.1562C57.0938 8.00234 54.8858 6.25 52.1719 6.25ZM25.5938 4.6875C25.5938 3.82598 26.477 3.125 27.5625 3.125H35.4375C36.523 3.125 37.4062 3.82598 37.4062 4.6875V6.25H25.5938V4.6875ZM9.84375 10.1562C9.84375 9.72549 10.2854 9.375 10.8281 9.375H52.1719C52.7146 9.375 53.1562 9.72549 53.1562 10.1562V14.0625C52.5495 14.0625 12.358 14.0625 9.84375 14.0625V10.1562ZM48.4151 45.3868C48.3651 46.2213 47.5013 46.875 46.4487 46.875H16.5513C15.4986 46.875 14.6348 46.2213 14.5849 45.3868L12.8929 17.1875H50.1071L48.4151 45.3868Z" fill="black"/>
<path d="M31.5 43.75C32.5872 43.75 33.4688 43.0504 33.4688 42.1875V21.875C33.4688 21.0121 32.5872 20.3125 31.5 20.3125C30.4128 20.3125 29.5312 21.0121 29.5312 21.875V42.1875C29.5312 43.0504 30.4126 43.75 31.5 43.75Z" fill="black"/>
<path d="M41.3438 43.75C42.431 43.75 43.3125 43.0504 43.3125 42.1875V21.875C43.3125 21.0121 42.431 20.3125 41.3438 20.3125C40.2565 20.3125 39.375 21.0121 39.375 21.875V42.1875C39.375 43.0504 40.2564 43.75 41.3438 43.75Z" fill="black"/>
<path d="M21.6562 43.75C22.7435 43.75 23.625 43.0504 23.625 42.1875V21.875C23.625 21.0121 22.7435 20.3125 21.6562 20.3125C20.569 20.3125 19.6875 21.0121 19.6875 21.875V42.1875C19.6875 43.0504 20.5689 43.75 21.6562 43.75Z" fill="black"/>
</svg>
