<svg width="50" height="51" viewBox="0 0 50 51" fill="none" xmlns="http://www.w3.org/2000/svg">
<path d="M17.9167 22.5011C19.5275 22.5011 20.8333 21.1953 20.8333 19.5845C20.8333 17.9737 19.5275 16.6678 17.9167 16.6678C16.3058 16.6678 15 17.9737 15 19.5845C15 20.358 15.3073 21.0999 15.8543 21.6469C16.4013 22.1939 17.1431 22.5011 17.9167 22.5011ZM17.9167 18.3345C18.607 18.3345 19.1667 18.8941 19.1667 19.5845C19.1667 20.2748 18.607 20.8345 17.9167 20.8345C17.2263 20.8345 16.6667 20.2748 16.6667 19.5845C16.6667 18.8941 17.2263 18.3345 17.9167 18.3345Z" fill="#14213D"/>
<path d="M25.8333 2.91675C25.8333 1.73707 25.1227 0.673548 24.0328 0.222103C22.9429 -0.229341 21.6884 0.0201962 20.8542 0.854357C20.0201 1.68852 19.7705 2.94303 20.222 4.03291C20.6734 5.1228 21.737 5.83342 22.9166 5.83342C24.5275 5.83342 25.8333 4.52758 25.8333 2.91675ZM22.9166 4.16675C22.2263 4.16675 21.6666 3.60711 21.6666 2.91675C21.6666 2.2264 22.2263 1.66675 22.9166 1.66675C23.607 1.66675 24.1666 2.2264 24.1666 2.91675C24.1666 3.24827 24.0349 3.56622 23.8005 3.80064C23.5661 4.03506 23.2482 4.16675 22.9166 4.16675Z" fill="#14213D"/>
<path d="M32.9167 25.0012C34.5275 25.0012 35.8333 23.6953 35.8333 22.0845C35.8333 20.4737 34.5275 19.1678 32.9167 19.1678C31.3058 19.1678 30 20.4737 30 22.0845C30 23.6953 31.3058 25.0012 32.9167 25.0012ZM32.9167 20.8345C33.607 20.8345 34.1667 21.3941 34.1667 22.0845C34.1667 22.7748 33.607 23.3345 32.9167 23.3345C32.2263 23.3345 31.6667 22.7748 31.6667 22.0845C31.6667 21.3941 32.2263 20.8345 32.9167 20.8345Z" fill="#14213D"/>
<path d="M28.3333 19.1678C28.7936 19.1678 29.1666 18.7947 29.1666 18.3345C29.1666 17.8743 28.7936 17.5012 28.3333 17.5012C27.8731 17.5012 27.5 17.8743 27.5 18.3345C27.5 18.7947 27.8731 19.1678 28.3333 19.1678Z" fill="#14213D"/>
<path d="M21.6666 25.0012C22.1268 25.0012 22.4999 24.6281 22.4999 24.1678C22.4999 23.7076 22.1268 23.3345 21.6666 23.3345C21.2063 23.3345 20.8333 23.7076 20.8333 24.1678C20.8333 24.6281 21.2063 25.0012 21.6666 25.0012Z" fill="#14213D"/>
<path d="M24.1667 21.6678C24.6269 21.6678 25 21.2947 25 20.8345C25 20.3742 24.6269 20.0011 24.1667 20.0011C23.7065 20.0011 23.3334 20.3742 23.3334 20.8345C23.3334 21.2947 23.7065 21.6678 24.1667 21.6678Z" fill="#14213D"/>
<path d="M22.5 10.8345C22.9602 10.8345 23.3333 10.4614 23.3333 10.0011C23.3333 9.54088 22.9602 9.16779 22.5 9.16779C22.0397 9.16779 21.6666 9.54088 21.6666 10.0011C21.6666 10.4614 22.0397 10.8345 22.5 10.8345Z" fill="#14213D"/>
<path d="M20 8.33451C20.4602 8.33451 20.8333 7.96142 20.8333 7.50118C20.8333 7.04094 20.4602 6.66785 20 6.66785C19.5397 6.66785 19.1666 7.04094 19.1666 7.50118C19.1666 7.96142 19.5397 8.33451 20 8.33451Z" fill="#14213D"/>
<path d="M31.6666 10.0011C32.1268 10.0011 32.4999 9.62804 32.4999 9.16781C32.4999 8.70757 32.1268 8.33447 31.6666 8.33447C31.2063 8.33447 30.8333 8.70757 30.8333 9.16781C30.8333 9.62804 31.2063 10.0011 31.6666 10.0011Z" fill="#14213D"/>
<path d="M5.83325 45.8345V47.5012C5.83325 48.8819 6.95254 50.0012 8.33325 50.0012H41.6666C43.0473 50.0012 44.1666 48.8819 44.1666 47.5012V45.8345C44.1666 44.4538 43.0473 43.3345 41.6666 43.3345H38.3333C38.8742 42.6133 39.1666 41.736 39.1666 40.8345C39.0631 38.2117 38.0003 35.7181 36.1799 33.827C35.5229 33.193 34.4825 33.1912 33.8233 33.8228C32.0642 35.6535 31.0057 38.0449 30.8333 40.5778C30.8031 41.5688 31.1101 42.5407 31.7041 43.3345H28.3333C28.8742 42.6133 29.1666 41.736 29.1666 40.8345C29.0631 38.2117 28.0003 35.7181 26.1799 33.827C25.5229 33.193 24.4825 33.1912 23.8233 33.8228C22.0642 35.6535 21.0057 38.0449 20.8333 40.5778C20.8031 41.5688 21.1101 42.5407 21.7041 43.3345H18.3333C18.8742 42.6133 19.1666 41.736 19.1666 40.8345C19.0629 38.2119 18.0004 35.7185 16.1808 33.827C15.5234 33.1939 14.4837 33.192 13.8241 33.8228C12.0643 35.653 11.0054 38.0447 10.8333 40.5778C10.8036 41.569 11.1112 42.5409 11.7058 43.3345H8.33325C6.95254 43.3345 5.83325 44.4538 5.83325 45.8345ZM34.9999 35.0012C36.5172 36.5753 37.4064 38.6501 37.4999 40.8345C37.5005 41.5666 37.1801 42.2622 36.6234 42.7376C36.0667 43.213 35.3296 43.4205 34.6066 43.3053C33.3364 43.0617 32.4386 41.9213 32.4999 40.6295C32.651 38.5192 33.5354 36.5281 34.9999 35.0012ZM24.9999 35.0012C26.5172 36.5753 27.4064 38.6501 27.4999 40.8345C27.5005 41.5666 27.1801 42.2622 26.6234 42.7376C26.0667 43.213 25.3296 43.4205 24.6066 43.3053C23.3364 43.0617 22.4386 41.9213 22.4999 40.6295C22.651 38.5192 23.5354 36.5281 24.9999 35.0012ZM14.9999 35.0012C16.5172 36.5753 17.4064 38.6501 17.4999 40.8345C17.5005 41.5666 17.1801 42.2622 16.6234 42.7376C16.0667 43.213 15.3296 43.4205 14.6066 43.3053C13.3362 43.0621 12.4383 41.9215 12.4999 40.6295C12.651 38.5192 13.5354 36.5281 14.9999 35.0012ZM42.4999 45.8345V47.5012C42.4999 47.9614 42.1268 48.3345 41.6666 48.3345H8.33325C7.87301 48.3345 7.49992 47.9614 7.49992 47.5012V45.8345C7.49992 45.3743 7.87301 45.0012 8.33325 45.0012H41.6666C42.1268 45.0012 42.4999 45.3743 42.4999 45.8345Z" fill="#14213D"/>
<path d="M48.3333 11.6678H45V10.0011C45 9.08066 44.2538 8.33447 43.3333 8.33447H40.8333C38.9924 8.33447 37.5 9.82686 37.5 11.6678V11.7461C36.8037 11.8936 36.1543 12.2101 35.6092 12.6678C34.6319 13.5568 33.1389 13.5568 32.1617 12.6678C30.5912 11.3346 28.2863 11.3346 26.7158 12.6678C25.7405 13.5569 24.2486 13.5569 23.2733 12.6678C21.7039 11.3343 19.3994 11.3343 17.83 12.6678C16.855 13.5567 15.3634 13.5567 14.3883 12.6678C13.8439 12.2116 13.1953 11.8967 12.5 11.7511V11.6678C12.5 9.82686 11.0076 8.33447 9.16667 8.33447H6.66667C5.74619 8.33447 5 9.08066 5 10.0011V11.6678H1.66667C0.746192 11.6678 0 12.414 0 13.3345L0 15.8345C0 16.7549 0.746192 17.5011 1.66667 17.5011H7.5V26.6678C7.50276 29.4281 9.73972 31.665 12.5 31.6678L37.5 31.6678C40.2603 31.665 42.4972 29.4281 42.5 26.6678V17.5011L48.3333 17.5011C49.2538 17.5011 50 16.7549 50 15.8345V13.3345C50 12.414 49.2538 11.6678 48.3333 11.6678ZM13.3867 14.0011C14.9565 15.3344 17.261 15.3344 18.8308 14.0011C19.8059 13.1122 21.2975 13.1122 22.2725 14.0011C23.8417 15.3345 26.1458 15.3345 27.715 14.0011C28.6922 13.1122 30.1853 13.1122 31.1625 14.0011C32.7333 15.3344 35.0384 15.3344 36.6092 14.0011C36.8776 13.7816 37.178 13.6043 37.5 13.4753V26.6678L12.5 26.6678L12.5 13.4761C12.8206 13.6049 13.1196 13.7819 13.3867 14.0011ZM1.66667 15.8345L1.66667 13.3345H7.5V15.8345H1.66667ZM40.8333 26.6678C40.8333 28.5087 39.341 30.0011 37.5 30.0011L12.5 30.0011C10.6591 30.0011 9.16667 28.5087 9.16667 26.6678L9.16667 12.5011C9.16667 12.0409 8.79357 11.6678 8.33333 11.6678H6.66667V10.0011H9.16667C10.0871 10.0011 10.8333 10.7473 10.8333 11.6678L10.8333 26.6678C10.8333 27.5883 11.5795 28.3345 12.5 28.3345L37.5 28.3345C38.4205 28.3345 39.1667 27.5883 39.1667 26.6678V11.6678C39.1667 10.7473 39.9129 10.0011 40.8333 10.0011H43.3333V11.6678L41.6667 11.6678C41.2064 11.6678 40.8333 12.0409 40.8333 12.5011V26.6678ZM42.5 15.8345V13.3345H48.3333V15.8345H42.5Z" fill="#14213D"/>
</svg>
